<?xml version="1.0" encoding="UTF-8"?>
<!DOCTYPE svg PUBLIC "-//W3C//DTD SVG 1.1//EN" "http://www.w3.org/Graphics/SVG/1.1/DTD/svg11.dtd">
<!-- Creator: CorelDRAW -->
<svg xmlns="http://www.w3.org/2000/svg" xml:space="preserve" width="60cm" height="30cm" shape-rendering="geometricPrecision" text-rendering="geometricPrecision" image-rendering="optimizeQuality" fill-rule="evenodd" clip-rule="evenodd"
viewBox="0 0 600 300"
 xmlns:xlink="http://www.w3.org/1999/xlink">
 <g id="Layer_x0020_1">
  <metadata id="CorelCorpID_0Corel-Layer"/>
  <path fill="none" stroke="#1F1A17" stroke-width="0.0762" d="M165.594 10.3939c2.7147,-2.7146 6.4647,-4.3939 10.6061,-4.3939l219.8 0 0 10 0 2.5c-0.2761,0 -0.5,0.2239 -0.5,0.5 0,0.2761 0.2239,0.5 0.5,0.5 0.2761,0 0.5,-0.2239 0.5,-0.5l4.5 0 0 10 -4.5 0c0,-0.2761 -0.2239,-0.5 -0.5,-0.5 -0.2761,0 -0.5,0.2239 -0.5,0.5 0,0.2761 0.2239,0.5 0.5,0.5l0 3 -3.9447 0 0 -1.25 -2.5 0 0 1.25 -4.5553 0 0 3 4.5553 0 0 1.25 2.5 0 0 -1.25 3.9447 0 0 3c-0.2761,0 -0.5,0.2239 -0.5,0.5 0,0.2761 0.2239,0.5 0.5,0.5 0.2761,0 0.5,-0.2239 0.5,-0.5l4.5 0 0 10 -4.5 0c0,-0.2761 -0.2239,-0.5 -0.5,-0.5 -0.2761,0 -0.5,0.2239 -0.5,0.5 0,0.2761 0.2239,0.5 0.5,0.5l0 1.5 0 1 0 77.5 0 2.5c-0.2761,0 -0.5,0.2239 -0.5,0.5 0,0.2761 0.2239,0.5 0.5,0.5 0.2761,0 0.5,-0.2239 0.5,-0.5l4.5 0 0 10 -4.5 0c0,-0.2761 -0.2239,-0.5 -0.5,-0.5 -0.2761,0 -0.5,0.2239 -0.5,0.5 0,0.2761 0.2239,0.5 0.5,0.5l0 3 -3.9447 0 0 -1.25 -2.5 0 0 1.25 -4.5553 0 0 3 4.5553 0 0 1.25 2.5 0 0 -1.25 3.9447 0 0 3c-0.2761,0 -0.5,0.2239 -0.5,0.5 0,0.2761 0.2239,0.5 0.5,0.5 0.2761,0 0.5,-0.2239 0.5,-0.5l4.5 0 0 10 -4.5 0c0,-0.2761 -0.2239,-0.5 -0.5,-0.5 -0.2761,0 -0.5,0.2239 -0.5,0.5 0,0.2761 0.2239,0.5 0.5,0.5l0 1.5 0 1 0 6.5 0 71 0 2.5c-0.2761,0 -0.5,0.2239 -0.5,0.5 0,0.2761 0.2239,0.5 0.5,0.5 0.2761,0 0.5,-0.2239 0.5,-0.5l4.5 0 0 10 -4.5 0c0,-0.2761 -0.2239,-0.5 -0.5,-0.5 -0.2761,0 -0.5,0.2239 -0.5,0.5 0,0.2761 0.2239,0.5 0.5,0.5l0 3 -3.9447 0 0 -1.25 -2.5 0 0 1.25 -4.5553 0 0 3 4.5553 0 0 1.25 2.5 0 0 -1.25 3.9447 0 0 3c-0.2761,0 -0.5,0.2239 -0.5,0.5 0,0.2761 0.2239,0.5 0.5,0.5 0.2761,0 0.5,-0.2239 0.5,-0.5l4.5 0 0 10 -4.5 0c0,-0.2761 -0.2239,-0.5 -0.5,-0.5 -0.2761,0 -0.5,0.2239 -0.5,0.5 0,0.2761 0.2239,0.5 0.5,0.5l0 1.5 0 1 0 10 0 3 -5 0 -0.3204 0 -4.1796 0c0,-0.2761 -0.2239,-0.5 -0.5,-0.5 -0.2761,0 -0.5,0.2239 -0.5,0.5 0,0.2761 0.2239,0.5 0.5,0.5l0 3.5 -10 0 0 -3.5c0.2761,0 0.5,-0.2239 0.5,-0.5 0,-0.2761 -0.2239,-0.5 -0.5,-0.5 -0.2761,0 -0.5,0.2239 -0.5,0.5l-4.5 0 -0.3204 0 -2.0898 0 -2.0898 0 -1 0 -2.5 0 0 -16.2297 -10 0 0 16.2297 -2 0 -0.3204 0 -4.1796 0 -1 0 -9 0 -1 0 -1.2 0 0 -15.7297 -13 0 0 15.7297 -4.8 0 -1 0 -2.5 0 -1 0 -1 0 -0.3204 0 -3.6796 0 -0.5 0 -1 0 -2.9 0 0 -15.2964 -17 0 0 15.2964 -0.1 0 -9 0 -1 0 -2.5 0 -2 0 -0.3204 0 -4.1796 0c0,-0.2761 -0.2239,-0.5 -0.5,-0.5 -0.2761,0 -0.5,0.2239 -0.5,0.5 0,0.2761 0.2239,0.5 0.5,0.5l0 3.5 -10 0 0 -3.5c0.2761,0 0.5,-0.2239 0.5,-0.5 0,-0.2761 -0.2239,-0.5 -0.5,-0.5 -0.2761,0 -0.5,0.2239 -0.5,0.5l-4.5 0 -0.3204 0 -4.1796 0c0,-0.2761 -0.2239,-0.5 -0.5,-0.5 -0.2761,0 -0.5,0.2239 -0.5,0.5 0,0.2761 0.2239,0.5 0.5,0.5l0 3.5 -10 0 0 -3.5c0.2761,0 0.5,-0.2239 0.5,-0.5 0,-0.2761 -0.2239,-0.5 -0.5,-0.5 -0.2761,0 -0.5,0.2239 -0.5,0.5l-4.5 0 -0.3204 0 -4.1796 0c0,-0.2761 -0.2239,-0.5 -0.5,-0.5 -0.2761,0 -0.5,0.2239 -0.5,0.5 0,0.2761 0.2239,0.5 0.5,0.5l0 3.5 -10 0 0 -3.5c0.2761,0 0.5,-0.2239 0.5,-0.5 0,-0.2761 -0.2239,-0.5 -0.5,-0.5 -0.2761,0 -0.5,0.2239 -0.5,0.5l-4.5 0 -0.3204 0 -4.1796 0c0,-0.2761 -0.2239,-0.5 -0.5,-0.5 -0.2761,0 -0.5,0.2239 -0.5,0.5 0,0.2761 0.2239,0.5 0.5,0.5l0 3.5 -10 0 0 -3.5c0.2761,0 0.5,-0.2239 0.5,-0.5 0,-0.2761 -0.2239,-0.5 -0.5,-0.5 -0.2761,0 -0.5,0.2239 -0.5,0.5l-4.5 0 -0.3204 0 -4.1796 0c0,-0.2761 -0.2239,-0.5 -0.5,-0.5 -0.2761,0 -0.5,0.2239 -0.5,0.5 0,0.2761 0.2239,0.5 0.5,0.5l0 3.5 -10 0 0 -3.5c0.2761,0 0.5,-0.2239 0.5,-0.5 0,-0.2761 -0.2239,-0.5 -0.5,-0.5 -0.2761,0 -0.5,0.2239 -0.5,0.5l-4.5 0 -0.3204 0 -4.1796 0c0,-0.2761 -0.2239,-0.5 -0.5,-0.5 -0.2761,0 -0.5,0.2239 -0.5,0.5 0,0.2761 0.2239,0.5 0.5,0.5l0 3.5 -10 0 0 -3.5c0.2761,0 0.5,-0.2239 0.5,-0.5 0,-0.2761 -0.2239,-0.5 -0.5,-0.5 -0.2761,0 -0.5,0.2239 -0.5,0.5l-4.5 0 -0.3204 0 -4.1796 0c0,-0.2761 -0.2239,-0.5 -0.5,-0.5 -0.2761,0 -0.5,0.2239 -0.5,0.5 0,0.2761 0.2239,0.5 0.5,0.5l0 3.5 -10 0 0 -3.5c0.2761,0 0.5,-0.2239 0.5,-0.5 0,-0.2761 -0.2239,-0.5 -0.5,-0.5 -0.2761,0 -0.5,0.2239 -0.5,0.5l-4.5 0 -0.3204 0 -4.1796 0c0,-0.2761 -0.2239,-0.5 -0.5,-0.5 -0.2761,0 -0.5,0.2239 -0.5,0.5 0,0.2761 0.2239,0.5 0.5,0.5l0 3.5 -10 0 0 -3.5c0.2761,0 0.5,-0.2239 0.5,-0.5 0,-0.2761 -0.2239,-0.5 -0.5,-0.5 -0.2761,0 -0.5,0.2239 -0.5,0.5l-4.5 0 -0.3204 0 -4.1796 0c0,-0.2761 -0.2239,-0.5 -0.5,-0.5 -0.2761,0 -0.5,0.2239 -0.5,0.5 0,0.2761 0.2239,0.5 0.5,0.5l0 3.5 -10 0 0 -3.5c0.2761,0 0.5,-0.2239 0.5,-0.5 0,-0.2761 -0.2239,-0.5 -0.5,-0.5 -0.2761,0 -0.5,0.2239 -0.5,0.5l-4.5 0 -0.3204 0 -4.1796 0c0,-0.2761 -0.2239,-0.5 -0.5,-0.5 -0.2761,0 -0.5,0.2239 -0.5,0.5 0,0.2761 0.2239,0.5 0.5,0.5l0 3.5 -10 0 0 -3.5c0.2761,0 0.5,-0.2239 0.5,-0.5 0,-0.2761 -0.2239,-0.5 -0.5,-0.5 -0.2761,0 -0.5,0.2239 -0.5,0.5l-4.5 0 -0.3204 0 -4.1796 0c0,-0.2761 -0.2239,-0.5 -0.5,-0.5 -0.2761,0 -0.5,0.2239 -0.5,0.5 0,0.2761 0.2239,0.5 0.5,0.5l0 3.5 -10 0 0 -3.5c0.2761,0 0.5,-0.2239 0.5,-0.5 0,-0.2761 -0.2239,-0.5 -0.5,-0.5 -0.2761,0 -0.5,0.2239 -0.5,0.5l-4.5 0 -0.3204 0 -4.1796 0c0,-0.2761 -0.2239,-0.5 -0.5,-0.5 -0.2761,0 -0.5,0.2239 -0.5,0.5 0,0.2761 0.2239,0.5 0.5,0.5l0 3.5 -10 0 0 -3.5c0.2761,0 0.5,-0.2239 0.5,-0.5 0,-0.2761 -0.2239,-0.5 -0.5,-0.5 -0.2761,0 -0.5,0.2239 -0.5,0.5l-4.5 0 -0.3204 0 -4.1796 0c0,-0.2761 -0.2239,-0.5 -0.5,-0.5 -0.2761,0 -0.5,0.2239 -0.5,0.5 0,0.2761 0.2239,0.5 0.5,0.5l0 3.5 -10 0 0 -3.5c0.2761,0 0.5,-0.2239 0.5,-0.5 0,-0.2761 -0.2239,-0.5 -0.5,-0.5 -0.2761,0 -0.5,0.2239 -0.5,0.5l-4.5 0 -7 0 0 -3 0 -111 0.0025 0c0.0505,-3.8603 1.5605,-7.3688 4.0026,-10l-0.0051 0 157.606 -157.606 -0.0122 0z"/>
  <circle fill="none" stroke="#1F1A17" stroke-width="0.0762" transform="matrix(2.64845E-014 1 -1 2.64845E-014 9.5 261)" r="1.5"/>
  <path fill="none" stroke="#1F1A17" stroke-width="0.0762" d="M6.5 246c0,-0.2761 0.2239,-0.5 0.5,-0.5 0.2761,0 0.5,0.2239 0.5,0.5l4 0c0,-0.2761 0.2239,-0.5 0.5,-0.5 0.2761,0 0.5,0.2239 0.5,0.5 0,0.2761 -0.2239,0.5 -0.5,0.5l0 9c0.2761,0 0.5,0.2239 0.5,0.5 0,0.2761 -0.2239,0.5 -0.5,0.5 -0.2761,0 -0.5,-0.2239 -0.5,-0.5l-4 0c0,0.2761 -0.2239,0.5 -0.5,0.5 -0.2761,0 -0.5,-0.2239 -0.5,-0.5 0,-0.2761 0.2239,-0.5 0.5,-0.5l0 -9c-0.2761,0 -0.5,-0.2239 -0.5,-0.5z"/>
  <path fill="none" stroke="#1F1A17" stroke-width="0.0762" d="M6.5 266c0,-0.2761 0.2239,-0.5 0.5,-0.5 0.2761,0 0.5,0.2239 0.5,0.5l4 0c0,-0.2761 0.2239,-0.5 0.5,-0.5 0.2761,0 0.5,0.2239 0.5,0.5 0,0.2761 -0.2239,0.5 -0.5,0.5l0 9c0.2761,0 0.5,0.2239 0.5,0.5 0,0.2761 -0.2239,0.5 -0.5,0.5 -0.2761,0 -0.5,-0.2239 -0.5,-0.5l-4 0c0,0.2761 -0.2239,0.5 -0.5,0.5 -0.2761,0 -0.5,-0.2239 -0.5,-0.5 0,-0.2761 0.2239,-0.5 0.5,-0.5l0 -9c-0.2761,0 -0.5,-0.2239 -0.5,-0.5z"/>
  <circle fill="none" stroke="#1F1A17" stroke-width="0.0762" transform="matrix(2.64845E-014 1 -1 2.64845E-014 9.5 200)" r="1.5"/>
  <path fill="none" stroke="#1F1A17" stroke-width="0.0762" d="M6.5 185c0,-0.2761 0.2239,-0.5 0.5,-0.5 0.2761,0 0.5,0.2239 0.5,0.5l4 0c0,-0.2761 0.2239,-0.5 0.5,-0.5 0.2761,0 0.5,0.2239 0.5,0.5 0,0.2761 -0.2239,0.5 -0.5,0.5l0 9c0.2761,0 0.5,0.2239 0.5,0.5 0,0.2761 -0.2239,0.5 -0.5,0.5 -0.2761,0 -0.5,-0.2239 -0.5,-0.5l-4 0c0,0.2761 -0.2239,0.5 -0.5,0.5 -0.2761,0 -0.5,-0.2239 -0.5,-0.5 0,-0.2761 0.2239,-0.5 0.5,-0.5l0 -9c-0.2761,0 -0.5,-0.2239 -0.5,-0.5z"/>
  <path fill="none" stroke="#1F1A17" stroke-width="0.0762" d="M6.5 205c0,-0.2761 0.2239,-0.5 0.5,-0.5 0.2761,0 0.5,0.2239 0.5,0.5l4 0c0,-0.2761 0.2239,-0.5 0.5,-0.5 0.2761,0 0.5,0.2239 0.5,0.5 0,0.2761 -0.2239,0.5 -0.5,0.5l0 9c0.2761,0 0.5,0.2239 0.5,0.5 0,0.2761 -0.2239,0.5 -0.5,0.5 -0.2761,0 -0.5,-0.2239 -0.5,-0.5l-4 0c0,0.2761 -0.2239,0.5 -0.5,0.5 -0.2761,0 -0.5,-0.2239 -0.5,-0.5 0,-0.2761 0.2239,-0.5 0.5,-0.5l0 -9c-0.2761,0 -0.5,-0.2239 -0.5,-0.5z"/>
  <circle fill="none" stroke="#1F1A17" stroke-width="0.0762" cx="368" cy="11.5" r="1.5"/>
  <path fill="none" stroke="#1F1A17" stroke-width="0.0762" d="M383 8.5c0.2761,0 0.5,0.2239 0.5,0.5 0,0.2761 -0.2239,0.5 -0.5,0.5l0 4c0.2761,0 0.5,0.2239 0.5,0.5 0,0.2761 -0.2239,0.5 -0.5,0.5 -0.2761,0 -0.5,-0.2239 -0.5,-0.5l-9 0c0,0.2761 -0.2239,0.5 -0.5,0.5 -0.2761,0 -0.5,-0.2239 -0.5,-0.5 0,-0.2761 0.2239,-0.5 0.5,-0.5l0 -4c-0.2761,0 -0.5,-0.2239 -0.5,-0.5 0,-0.2761 0.2239,-0.5 0.5,-0.5 0.2761,0 0.5,0.2239 0.5,0.5l9 0c0,-0.2761 0.2239,-0.5 0.5,-0.5z"/>
  <path fill="none" stroke="#1F1A17" stroke-width="0.0762" d="M363 8.5c0.2761,0 0.5,0.2239 0.5,0.5 0,0.2761 -0.2239,0.5 -0.5,0.5l0 4c0.2761,0 0.5,0.2239 0.5,0.5 0,0.2761 -0.2239,0.5 -0.5,0.5 -0.2761,0 -0.5,-0.2239 -0.5,-0.5l-9 0c0,0.2761 -0.2239,0.5 -0.5,0.5 -0.2761,0 -0.5,-0.2239 -0.5,-0.5 0,-0.2761 0.2239,-0.5 0.5,-0.5l0 -4c-0.2761,0 -0.5,-0.2239 -0.5,-0.5 0,-0.2761 0.2239,-0.5 0.5,-0.5 0.2761,0 0.5,0.2239 0.5,0.5l9 0c0,-0.2761 0.2239,-0.5 0.5,-0.5z"/>
  <circle fill="none" stroke="#1F1A17" stroke-width="0.0762" cx="198" cy="11.5" r="1.5"/>
  <path fill="none" stroke="#1F1A17" stroke-width="0.0762" d="M213 8.5c0.2761,0 0.5,0.2239 0.5,0.5 0,0.2761 -0.2239,0.5 -0.5,0.5l0 4c0.2761,0 0.5,0.2239 0.5,0.5 0,0.2761 -0.2239,0.5 -0.5,0.5 -0.2761,0 -0.5,-0.2239 -0.5,-0.5l-9 0c0,0.2761 -0.2239,0.5 -0.5,0.5 -0.2761,0 -0.5,-0.2239 -0.5,-0.5 0,-0.2761 0.2239,-0.5 0.5,-0.5l0 -4c-0.2761,0 -0.5,-0.2239 -0.5,-0.5 0,-0.2761 0.2239,-0.5 0.5,-0.5 0.2761,0 0.5,0.2239 0.5,0.5l9 0c0,-0.2761 0.2239,-0.5 0.5,-0.5z"/>
  <path fill="none" stroke="#1F1A17" stroke-width="0.0762" d="M193 8.5c0.2761,0 0.5,0.2239 0.5,0.5 0,0.2761 -0.2239,0.5 -0.5,0.5l0 4c0.2761,0 0.5,0.2239 0.5,0.5 0,0.2761 -0.2239,0.5 -0.5,0.5 -0.2761,0 -0.5,-0.2239 -0.5,-0.5l-9 0c0,0.2761 -0.2239,0.5 -0.5,0.5 -0.2761,0 -0.5,-0.2239 -0.5,-0.5 0,-0.2761 0.2239,-0.5 0.5,-0.5l0 -4c-0.2761,0 -0.5,-0.2239 -0.5,-0.5 0,-0.2761 0.2239,-0.5 0.5,-0.5 0.2761,0 0.5,0.2239 0.5,0.5l9 0c0,-0.2761 0.2239,-0.5 0.5,-0.5z"/>
  <circle fill="none" stroke="#1F1A17" stroke-width="0.0762" cx="283" cy="11.5" r="1.5"/>
  <path fill="none" stroke="#1F1A17" stroke-width="0.0762" d="M298 8.5c0.2761,0 0.5,0.2239 0.5,0.5 0,0.2761 -0.2239,0.5 -0.5,0.5l0 4c0.2761,0 0.5,0.2239 0.5,0.5 0,0.2761 -0.2239,0.5 -0.5,0.5 -0.2761,0 -0.5,-0.2239 -0.5,-0.5l-9 0c0,0.2761 -0.2239,0.5 -0.5,0.5 -0.2761,0 -0.5,-0.2239 -0.5,-0.5 0,-0.2761 0.2239,-0.5 0.5,-0.5l0 -4c-0.2761,0 -0.5,-0.2239 -0.5,-0.5 0,-0.2761 0.2239,-0.5 0.5,-0.5 0.2761,0 0.5,0.2239 0.5,0.5l9 0c0,-0.2761 0.2239,-0.5 0.5,-0.5z"/>
  <path fill="none" stroke="#1F1A17" stroke-width="0.0762" d="M278 8.5c0.2761,0 0.5,0.2239 0.5,0.5 0,0.2761 -0.2239,0.5 -0.5,0.5l0 4c0.2761,0 0.5,0.2239 0.5,0.5 0,0.2761 -0.2239,0.5 -0.5,0.5 -0.2761,0 -0.5,-0.2239 -0.5,-0.5l-9 0c0,0.2761 -0.2239,0.5 -0.5,0.5 -0.2761,0 -0.5,-0.2239 -0.5,-0.5 0,-0.2761 0.2239,-0.5 0.5,-0.5l0 -4c-0.2761,0 -0.5,-0.2239 -0.5,-0.5 0,-0.2761 0.2239,-0.5 0.5,-0.5 0.2761,0 0.5,0.2239 0.5,0.5l9 0c0,-0.2761 0.2239,-0.5 0.5,-0.5z"/>
  <circle fill="none" stroke="#1F1A17" stroke-width="0.0762" transform="matrix(-0.707107 0.707107 -0.707107 -0.707107 151.825 32.017)" r="1.5"/>
  <path fill="none" stroke="#1F1A17" stroke-width="0.0762" d="M160.31 19.2891c0.1952,-0.1952 0.5118,-0.1952 0.7071,0 0.1952,0.1952 0.1952,0.5119 0,0.7071l2.8284 2.8284c0.1952,-0.1952 0.5119,-0.1952 0.7071,0 0.1952,0.1953 0.1952,0.5119 0,0.7071 -0.1952,0.1953 -0.5119,0.1953 -0.7071,0l-6.364 6.364c0.1953,0.1952 0.1953,0.5119 0,0.7071 -0.1952,0.1952 -0.5118,0.1952 -0.7071,0 -0.1952,-0.1952 -0.1952,-0.5119 0,-0.7071l-2.8284 -2.8284c-0.1952,0.1952 -0.5119,0.1952 -0.7071,0 -0.1952,-0.1953 -0.1952,-0.5119 0,-0.7071 0.1952,-0.1953 0.5119,-0.1953 0.7071,0l6.364 -6.364c-0.1953,-0.1952 -0.1953,-0.5119 0,-0.7071z"/>
  <path fill="none" stroke="#1F1A17" stroke-width="0.0762" d="M146.168 33.4312c0.1953,-0.1952 0.5119,-0.1952 0.7071,0 0.1953,0.1953 0.1953,0.5119 0,0.7071l2.8285 2.8285c0.1952,-0.1953 0.5118,-0.1953 0.7071,0 0.1952,0.1952 0.1952,0.5118 0,0.7071 -0.1953,0.1952 -0.5119,0.1952 -0.7071,0l-6.364 6.3639c0.1952,0.1953 0.1952,0.5119 0,0.7071 -0.1952,0.1953 -0.5119,0.1953 -0.7071,0 -0.1952,-0.1952 -0.1952,-0.5118 0,-0.7071l-2.8284 -2.8284c-0.1953,0.1952 -0.5119,0.1952 -0.7071,0 -0.1953,-0.1952 -0.1953,-0.5119 0,-0.7071 0.1952,-0.1952 0.5118,-0.1952 0.7071,0l6.3639 -6.364c-0.1952,-0.1952 -0.1952,-0.5118 0,-0.7071z"/>
  <circle fill="none" stroke="#1F1A17" stroke-width="0.0762" transform="matrix(-0.707107 0.707107 -0.707107 -0.707107 31.617 152.225)" r="1.5"/>
  <path fill="none" stroke="#1F1A17" stroke-width="0.0762" d="M40.1023 139.497c0.1952,-0.1953 0.5119,-0.1953 0.7071,0 0.1952,0.1952 0.1952,0.5118 0,0.7071l2.8284 2.8284c0.1953,-0.1952 0.5119,-0.1952 0.7071,0 0.1953,0.1952 0.1953,0.5119 0,0.7071 -0.1952,0.1952 -0.5118,0.1952 -0.7071,0l-6.3639 6.364c0.1952,0.1952 0.1952,0.5118 0,0.7071 -0.1953,0.1952 -0.5119,0.1952 -0.7071,0 -0.1953,-0.1953 -0.1953,-0.5119 0,-0.7071l-2.8285 -2.8285c-0.1952,0.1953 -0.5118,0.1953 -0.7071,0 -0.1952,-0.1952 -0.1952,-0.5118 0,-0.7071 0.1953,-0.1952 0.5119,-0.1952 0.7071,0l6.364 -6.3639c-0.1952,-0.1953 -0.1952,-0.5119 0,-0.7071z"/>
  <path fill="none" stroke="#1F1A17" stroke-width="0.0762" d="M25.9602 153.639c0.1952,-0.1952 0.5118,-0.1952 0.7071,0 0.1952,0.1952 0.1952,0.5119 0,0.7071l2.8284 2.8284c0.1952,-0.1952 0.5119,-0.1952 0.7071,0 0.1952,0.1953 0.1952,0.5119 0,0.7071 -0.1952,0.1953 -0.5119,0.1953 -0.7071,0l-6.364 6.364c0.1953,0.1952 0.1953,0.5119 0,0.7071 -0.1952,0.1952 -0.5118,0.1952 -0.7071,0 -0.1952,-0.1952 -0.1952,-0.5119 0,-0.7071l-2.8284 -2.8284c-0.1952,0.1952 -0.5119,0.1952 -0.7071,0 -0.1952,-0.1953 -0.1952,-0.5119 0,-0.7071 0.1952,-0.1953 0.5119,-0.1953 0.7071,0l6.364 -6.364c-0.1953,-0.1952 -0.1953,-0.5119 0,-0.7071z"/>
  <circle fill="none" stroke="#1F1A17" stroke-width="0.0762" transform="matrix(-0.707107 0.707107 -0.707107 -0.707107 91.7211 92.1211)" r="1.5"/>
  <path fill="none" stroke="#1F1A17" stroke-width="0.0762" d="M100.206 79.3932c0.1952,-0.1953 0.5119,-0.1953 0.7071,0 0.1952,0.1952 0.1952,0.5119 0,0.7071l2.8284 2.8284c0.1952,-0.1952 0.5119,-0.1952 0.7071,0 0.1953,0.1952 0.1953,0.5119 0,0.7071 -0.1952,0.1953 -0.5119,0.1953 -0.7071,0l-6.3639 6.364c0.1952,0.1952 0.1952,0.5119 0,0.7071 -0.1953,0.1952 -0.5119,0.1952 -0.7072,0 -0.1952,-0.1952 -0.1952,-0.5119 0,-0.7071l-2.8284 -2.8284c-0.1952,0.1952 -0.5119,0.1952 -0.7071,0 -0.1952,-0.1953 -0.1952,-0.5119 0,-0.7072 0.1952,-0.1952 0.5119,-0.1952 0.7071,0l6.364 -6.3639c-0.1953,-0.1952 -0.1953,-0.5119 0,-0.7071z"/>
  <path fill="none" stroke="#1F1A17" stroke-width="0.0762" d="M86.0642 93.5353c0.1953,-0.1952 0.5119,-0.1952 0.7072,0 0.1952,0.1952 0.1952,0.5119 0,0.7071l2.8284 2.8284c0.1952,-0.1952 0.5119,-0.1952 0.7071,0 0.1952,0.1953 0.1952,0.5119 0,0.7072 -0.1952,0.1952 -0.5119,0.1952 -0.7071,0l-6.364 6.3639c0.1953,0.1952 0.1953,0.5119 0,0.7071 -0.1952,0.1953 -0.5119,0.1953 -0.7071,0 -0.1952,-0.1952 -0.1952,-0.5119 0,-0.7071l-2.8284 -2.8284c-0.1952,0.1952 -0.5119,0.1952 -0.7071,0 -0.1953,-0.1952 -0.1953,-0.5119 0,-0.7071 0.1952,-0.1953 0.5119,-0.1953 0.7071,0l6.3639 -6.364c-0.1952,-0.1952 -0.1952,-0.5119 0,-0.7071z"/>
  <circle fill="none" stroke="#1F1A17" stroke-width="0.0762" cx="140.5" cy="188" r="1.5"/>
  <circle fill="none" stroke="#1F1A17" stroke-width="0.0762" cx="326" cy="205" r="1.5"/>
  <circle fill="none" stroke="#1F1A17" stroke-width="0.0762" cx="246" cy="205" r="1.5"/>
  <path fill="#1F1A17" fill-rule="nonzero" d="M322.39 269.067l0.7281 0 0 2.7559c0,0.4096 0.0942,0.7165 0.2837,0.9229 0.1894,0.2053 0.472,0.3079 0.8477,0.3079 0.3747,0 0.6562,-0.1026 0.8456,-0.3079 0.1895,-0.2064 0.2836,-0.5133 0.2836,-0.9229l0 -2.7559 0.7377 0 0 2.8247c0,0.6138 -0.1545,1.0731 -0.4646,1.3779 -0.3101,0.3048 -0.7779,0.4573 -1.4012,0.4573 -0.6245,0 -1.0912,-0.1525 -1.3992,-0.4562 -0.3079,-0.3037 -0.4614,-0.7631 -0.4614,-1.379l0 -2.8247z"/>
  <path id="1" fill="#1F1A17" fill-rule="nonzero" d="M326.873 272.697l0.5884 -0.272c0.0561,0.2021 0.1587,0.3567 0.3069,0.4625 0.1492,0.1069 0.3397,0.1598 0.5704,0.1598 0.2191,0 0.3937,-0.0614 0.5229,-0.1831 0.1291,-0.1217 0.1936,-0.2847 0.1936,-0.4889 0,-0.2667 -0.2212,-0.5049 -0.6635,-0.7134 -0.0625,-0.0307 -0.109,-0.0539 -0.1429,-0.0677 -0.4995,-0.2445 -0.8329,-0.4646 -0.9991,-0.6625 -0.1661,-0.1969 -0.2497,-0.4392 -0.2497,-0.7239 0,-0.3704 0.1259,-0.6699 0.3767,-0.8996 0.2508,-0.2297 0.58,-0.344 0.9874,-0.344 0.3345,0 0.6149,0.0646 0.8404,0.1937 0.2254,0.1291 0.381,0.3154 0.4677,0.5567l-0.5767 0.2974c-0.0911,-0.1429 -0.1905,-0.2466 -0.2996,-0.3122 -0.1079,-0.0667 -0.2328,-0.0995 -0.3735,-0.0995 -0.198,0 -0.3556,0.0519 -0.4721,0.1545 -0.1174,0.1037 -0.1756,0.2424 -0.1756,0.4159 0,0.2731 0.2561,0.5271 0.7694,0.762 0.0391,0.0191 0.0698,0.0339 0.092,0.0434 0.4488,0.2075 0.7567,0.4096 0.925,0.6065 0.1672,0.1979 0.2508,0.4445 0.2508,0.7397 0,0.4297 -0.1354,0.7716 -0.4064,1.0245 -0.2709,0.2529 -0.636,0.38 -1.0974,0.38 -0.3863,0 -0.7028,-0.0889 -0.9504,-0.2668 -0.2466,-0.1778 -0.4085,-0.4318 -0.4847,-0.763z"/>
  <path id="12" fill="#1F1A17" fill-rule="nonzero" d="M331.342 270.983l0.2816 0c0.3513,0 0.6,-0.0476 0.7461,-0.1439 0.145,-0.0963 0.218,-0.2582 0.218,-0.4858 0,-0.2476 -0.0667,-0.4222 -0.2011,-0.5228 -0.1344,-0.1005 -0.3884,-0.1503 -0.763,-0.1503l-0.2816 0 0 1.3028zm0 2.0056l0.254 0c0.2583,0 0.452,-0.0106 0.58,-0.0307 0.1281,-0.0212 0.2286,-0.0572 0.3038,-0.109 0.091,-0.0593 0.1608,-0.1408 0.2106,-0.2413 0.0497,-0.1016 0.074,-0.2127 0.074,-0.3355 0,-0.1439 -0.0296,-0.2709 -0.0899,-0.3778 -0.0603,-0.108 -0.1461,-0.1916 -0.2572,-0.2509 -0.0698,-0.0359 -0.1503,-0.0613 -0.2402,-0.0783 -0.09,-0.0158 -0.2096,-0.0243 -0.3577,-0.0243l-0.2234 0 -0.254 0 0 1.4478zm-0.7228 0.617l0 -4.5392 1.1441 0c0.327,0 0.5683,0.018 0.7239,0.0529 0.1555,0.0349 0.2889,0.0932 0.3979,0.1736 0.1408,0.1037 0.2498,0.2392 0.327,0.4064 0.0773,0.1672 0.1164,0.3524 0.1164,0.5546 0,0.2423 -0.0561,0.4445 -0.1672,0.6064 -0.1122,0.1619 -0.2741,0.2751 -0.4868,0.3397 0.2646,0.0413 0.4731,0.1619 0.6255,0.3609 0.1513,0.2 0.2275,0.4508 0.2275,0.7546 0,0.1841 -0.0317,0.3588 -0.0963,0.5239 -0.0635,0.1661 -0.1545,0.3069 -0.2731,0.4222 -0.1238,0.126 -0.2772,0.2149 -0.4614,0.2667 -0.1841,0.0519 -0.4932,0.0773 -0.9271,0.0773l-1.1504 0z"/>
  <polygon fill="#1F1A17" fill-rule="nonzero" points="354.005,273.619 354.005,269.706 353.066,269.706 353.351,269.123 354.679,269.123 354.679,273.619 "/>
  <path id="1" fill="#1F1A17" fill-rule="nonzero" d="M359.339 273.029l0 0.5895 -3.0427 0 1.6975 -2.0309c0.2106,-0.254 0.3641,-0.4774 0.4615,-0.67 0.0973,-0.1915 0.146,-0.3662 0.146,-0.5238 0,-0.2244 -0.0667,-0.4022 -0.2,-0.5313 -0.1334,-0.1291 -0.3165,-0.1937 -0.5472,-0.1937 -0.2074,0 -0.3778,0.0646 -0.5122,0.1937 -0.1344,0.1291 -0.2096,0.2995 -0.2265,0.5101l-0.7101 0c0,-0.4075 0.1365,-0.7324 0.4095,-0.9758 0.2731,-0.2424 0.6393,-0.3641 1.1007,-0.3641 0.4382,0 0.7842,0.1122 1.0372,0.3376 0.2529,0.2255 0.3799,0.5324 0.3799,0.9208 0,0.2773 -0.073,0.5567 -0.218,0.8393 -0.1461,0.2815 -0.4551,0.6921 -0.926,1.2287l-0.5768 0.6699 1.7272 0z"/>
  <path id="12" fill="#1F1A17" fill-rule="nonzero" d="M361.961 273.795l-2.0246 -4.7159 0.7662 0 1.0171 2.4183c0.0592,0.1408 0.109,0.2699 0.1481,0.3895 0.0392,0.1185 0.0709,0.2317 0.0932,0.3397 0.0275,-0.1143 0.0613,-0.2318 0.1026,-0.3535 0.0413,-0.1228 0.09,-0.2476 0.1461,-0.3757l1.0128 -2.4183 0.763 0 -2.0245 4.7159z"/>
  <path fill="#1F1A17" fill-rule="nonzero" d="M291.552 270.171c-0.2084,-0.1778 -0.4296,-0.3111 -0.6614,-0.4 -0.2328,-0.0889 -0.4773,-0.1334 -0.7334,-0.1334 -0.4964,0 -0.8996,0.1588 -1.2108,0.4774 -0.3111,0.3185 -0.4667,0.7313 -0.4667,1.2371 0,0.4901 0.1513,0.8943 0.454,1.2129 0.3027,0.3186 0.6848,0.4773 1.1462,0.4773 0.2678,0 0.5239,-0.0476 0.7673,-0.1429 0.2424,-0.0952 0.4752,-0.2381 0.6985,-0.4307l0 0.834c-0.1979,0.1428 -0.4149,0.2487 -0.6477,0.3185 -0.2339,0.0709 -0.4868,0.1059 -0.7599,0.1059 -0.3471,0 -0.6678,-0.0572 -0.9631,-0.1704 -0.2942,-0.1143 -0.5535,-0.2816 -0.7768,-0.5028 -0.2212,-0.2169 -0.3905,-0.473 -0.5101,-0.7672 -0.1185,-0.2943 -0.1778,-0.6086 -0.1778,-0.9409 0,-0.3334 0.0593,-0.6456 0.1778,-0.9377 0.1196,-0.2931 0.291,-0.5493 0.5165,-0.7705 0.2254,-0.2233 0.4836,-0.3926 0.7757,-0.5069 0.2911,-0.1154 0.6064,-0.1725 0.9451,-0.1725 0.2667,0 0.5207,0.0392 0.7631,0.1164 0.2413,0.0773 0.4762,0.1947 0.7038,0.3514l-0.0403 0.745z"/>
  <path id="1" fill="#1F1A17" fill-rule="nonzero" d="M295.176 273.606l-0.6731 0 0 -0.381c-0.1196,0.1693 -0.2603,0.2953 -0.4201,0.3778 -0.1598,0.0826 -0.3429,0.1239 -0.5504,0.1239 -0.4148,0 -0.7418,-0.1419 -0.981,-0.4266 -0.2382,-0.2836 -0.3577,-0.6731 -0.3577,-1.1673 0,-0.4688 0.1217,-0.8477 0.3661,-1.1356 0.2435,-0.2889 0.562,-0.4329 0.9547,-0.4329 0.2391,0 0.4445,0.0498 0.6148,0.1503 0.1704,0.1006 0.2953,0.2445 0.3736,0.4318l0 -0.4794 0.6731 0 0 2.939zm-0.654 -1.4796c0,-0.3037 -0.0709,-0.5397 -0.2127,-0.7101 -0.1419,-0.1693 -0.3398,-0.254 -0.5938,-0.254 -0.254,0 -0.454,0.0878 -0.6,0.2625 -0.145,0.1746 -0.2181,0.417 -0.2181,0.727 0,0.3123 0.0699,0.5525 0.2107,0.7229 0.1407,0.1693 0.3386,0.254 0.5947,0.254 0.2424,0 0.4392,-0.0921 0.5906,-0.2762 0.1524,-0.1842 0.2286,-0.4255 0.2286,-0.7261z"/>
  <path id="12" fill="#1F1A17" fill-rule="nonzero" d="M296.779 273.606l-0.6731 0 0 -2.939 0.6329 0 0 0.4805c0.1344,-0.2053 0.2868,-0.3546 0.4572,-0.4487 0.1704,-0.0942 0.3715,-0.1408 0.6032,-0.1408 0.2286,0 0.4191,0.0476 0.5694,0.1439 0.1514,0.0963 0.2657,0.2424 0.344,0.4392 0.1556,-0.2032 0.3207,-0.3503 0.4953,-0.4434 0.1746,-0.0931 0.3736,-0.1397 0.5969,-0.1397 0.1937,0 0.363,0.036 0.508,0.1069 0.145,0.0709 0.2572,0.1757 0.3376,0.3111 0.0381,0.0646 0.0656,0.1408 0.0825,0.2297 0.018,0.0889 0.0265,0.2159 0.0265,0.3821l0 0.2349 0 1.7833 -0.6731 0 0 -1.5102c0,-0.3948 -0.0423,-0.6552 -0.1259,-0.78 -0.0836,-0.1249 -0.2329,-0.1874 -0.4477,-0.1874 -0.2646,0 -0.453,0.0847 -0.5652,0.253 -0.1132,0.1683 -0.1693,0.4635 -0.1693,0.8847l0 1.3399 -0.6794 0 0 -1.5102c0,-0.3641 -0.0434,-0.616 -0.1313,-0.7568 -0.0878,-0.1407 -0.2392,-0.2106 -0.454,-0.2106 -0.1323,0 -0.2529,0.0297 -0.363,0.09 -0.109,0.0603 -0.1958,0.1429 -0.2604,0.2476 -0.0412,0.0688 -0.0698,0.1524 -0.0867,0.2519 -0.0159,0.0985 -0.0244,0.2815 -0.0244,0.5482l0 1.3399z"/>
 </g>
</svg>
