<?xml version="1.0" encoding="UTF-8"?>
<!DOCTYPE svg PUBLIC "-//W3C//DTD SVG 1.1//EN" "http://www.w3.org/Graphics/SVG/1.1/DTD/svg11.dtd">
<!-- Creator: CorelDRAW -->
<svg xmlns="http://www.w3.org/2000/svg" xml:space="preserve" width="60cm" height="30cm" shape-rendering="geometricPrecision" text-rendering="geometricPrecision" image-rendering="optimizeQuality" fill-rule="evenodd" clip-rule="evenodd"
viewBox="0 0 600 300"
 xmlns:xlink="http://www.w3.org/1999/xlink">
 <g id="Layer_x0020_1">
  <metadata id="CorelCorpID_0Corel-Layer"/>
  <path fill="none" stroke="#1F1A17" stroke-width="0.0762" d="M60 203.526l0 -34.5258 -9 0 -1 0 -1.5 0c0,0.2761 -0.2239,0.5 -0.5,0.5 -0.2761,0 -0.5,-0.2239 -0.5,-0.5 0,-0.2761 0.2239,-0.5 0.5,-0.5l0 -4.5 -10 0 0 4.5c0.2761,0 0.5,0.2239 0.5,0.5 0,0.2761 -0.2239,0.5 -0.5,0.5 -0.2761,0 -0.5,-0.2239 -0.5,-0.5l-3 0 0 3.9447 1.25 0 0 2.5 -1.25 0 0 4.5553 -3 0 0 -4.5553 -1.25 0 0 -2.5 1.25 0 0 -3.9447 -3 0c0,0.2761 -0.2239,0.5 -0.5,0.5 -0.2761,0 -0.5,-0.2239 -0.5,-0.5 0,-0.2761 0.2239,-0.5 0.5,-0.5l0 -4.5 -10 0 0 4.5c0.2761,0 0.5,0.2239 0.5,0.5 0,0.2761 -0.2239,0.5 -0.5,0.5 -0.2761,0 -0.5,-0.2239 -0.5,-0.5l-2.5 0 -9 0 0 34.5266 0 1 0 1.5c0.2761,0 0.5,0.2239 0.5,0.5 0,0.2761 -0.2239,0.5 -0.5,0.5 -0.2761,0 -0.5,-0.2239 -0.5,-0.5l-4.5 0 0 10 4.5 0c0,-0.2761 0.2239,-0.5 0.5,-0.5 0.2761,0 0.5,0.2239 0.5,0.5 0,0.2761 -0.2239,0.5 -0.5,0.5l0 3 3.9447 0 0 -1.25 2.5 0 0 1.25 4.5553 0 0 3 -4.5553 0 0 1.25 -2.5 0 0 -1.25 -3.9447 0 0 2.4736 0 0.5 0 0.0264c0.2716,0 0.4927,0.2166 0.4998,0.4865l0 0.0006c-0.0071,0.2698 -0.2282,0.4865 -0.4998,0.4865 -0.2761,0 -0.5,-0.2239 -0.5,-0.5l-4.5 0 0 0.0264 0 9.9736 0 0.0264 4.5 0c0,-0.2761 0.2239,-0.5 0.5,-0.5 0.2716,0 0.4927,0.2166 0.4998,0.4865l0 0.0006c-0.0071,0.2698 -0.2282,0.4865 -0.4998,0.4865l0 0.0264 0 1.4732 0 1.5004 3.9447 0 0 -1.25 2.5 0 0 1.25 4.5553 0 0 3 -4.5553 0 0 1.25 -2.5 0 0 -1.25 -3.9447 0 0 3c0.2761,0 0.5,0.2239 0.5,0.5 0,0.2761 -0.2239,0.5 -0.5,0.5 -0.2761,0 -0.5,-0.2239 -0.5,-0.5l-4.5 0 0 10 4.5 0c0,-0.2761 0.2239,-0.5 0.5,-0.5 0.2761,0 0.5,0.2239 0.5,0.5 0,0.2761 -0.2239,0.5 -0.5,0.5l0 2.5 0 34.4998 54 0 0 -32 0 -2.4998 0 -0.0008 0 -1 0 -0.4994 0 -1.0006c-0.2761,0 -0.5,-0.2239 -0.5,-0.5 0,-0.2761 0.2239,-0.5 0.5,-0.5 0.2761,0 0.5,0.2239 0.5,0.5l4.5 0 0 -10 -4.5 0c0,0.2761 -0.2239,0.5 -0.5,0.5 -0.2761,0 -0.5,-0.2239 -0.5,-0.5 0,-0.2761 0.2239,-0.5 0.5,-0.5l0 -3 -3.9447 0 0 1.25 -2.5 0 0 -1.25 -4.5553 0 0 -3 4.5553 0 0 -1.25 2.5 0 0 1.25 3.9447 0 0 -2.4736 0 -0.5 0 -0.0264c-0.2716,0 -0.4927,-0.2166 -0.4998,-0.4865l0 -0.0006c0.0071,-0.2698 0.2282,-0.4865 0.4998,-0.4865 0.2761,0 0.5,0.2239 0.5,0.5l4.5 0 0 -0.0264 0 -9.9736 0 -0.0264 -4.5 0c0,0.2761 -0.2239,0.5 -0.5,0.5 -0.2716,0 -0.4927,-0.2166 -0.4998,-0.4865l0 -0.0006c0.0071,-0.2698 0.2282,-0.4865 0.4998,-0.4865l0 -0.0264 0 -1.4732 0 -1.5004 -3.9447 0 0 1.25 -2.5 0 0 -1.25 -4.5553 0 0 -3 4.5553 0 0 -1.25 2.5 0 0 1.25 3.9447 0 0 -3c-0.2761,0 -0.5,-0.2239 -0.5,-0.5 0,-0.2761 0.2239,-0.5 0.5,-0.5 0.2761,0 0.5,0.2239 0.5,0.5l4.5 0 0 -10 -4.5 0c0,0.2761 -0.2239,0.5 -0.5,0.5 -0.2761,0 -0.5,-0.2239 -0.5,-0.5 0,-0.2761 0.2239,-0.5 0.5,-0.5l0 -2.5z"/>
  <g id="_76052160">
   <path id="_76850040" fill="none" stroke="#1F1A17" stroke-width="0.0762" d="M337.5 284c0.8283,0 1.5,0.6717 1.5,1.5 0,0.8283 -0.6717,1.5 -1.5,1.5 -0.8283,0 -1.5,-0.6717 -1.5,-1.5 0,-0.8283 0.6717,-1.5 1.5,-1.5z"/>
   <path id="_77097288" fill="none" stroke="#1F1A17" stroke-width="0.0762" d="M322.5 288.5c-0.2761,0 -0.5,-0.2239 -0.5,-0.5 0,-0.2761 0.2239,-0.5 0.5,-0.5l0 -4c-0.2761,0 -0.5,-0.2239 -0.5,-0.5 0,-0.2761 0.2239,-0.5 0.5,-0.5 0.2761,0 0.5,0.2239 0.5,0.5l9 0c0,-0.2761 0.2239,-0.5 0.5,-0.5 0.2761,0 0.5,0.2239 0.5,0.5 0,0.2761 -0.2239,0.5 -0.5,0.5l0 4c0.2761,0 0.5,0.2239 0.5,0.5 0,0.2761 -0.2239,0.5 -0.5,0.5 -0.2761,0 -0.5,-0.2239 -0.5,-0.5l-9 0c0,0.2761 -0.2239,0.5 -0.5,0.5z"/>
   <path id="_72127472" fill="none" stroke="#1F1A17" stroke-width="0.0762" d="M342.5 288.5c-0.2761,0 -0.5,-0.2239 -0.5,-0.5 0,-0.2761 0.2239,-0.5 0.5,-0.5l0 -4c-0.2761,0 -0.5,-0.2239 -0.5,-0.5 0,-0.2761 0.2239,-0.5 0.5,-0.5 0.2761,0 0.5,0.2239 0.5,0.5l9 0c0,-0.2761 0.2239,-0.5 0.5,-0.5 0.2761,0 0.5,0.2239 0.5,0.5 0,0.2761 -0.2239,0.5 -0.5,0.5l0 4c0.2761,0 0.5,0.2239 0.5,0.5 0,0.2761 -0.2239,0.5 -0.5,0.5 -0.2761,0 -0.5,-0.2239 -0.5,-0.5l-9 0c0,0.2761 -0.2239,0.5 -0.5,0.5z"/>
   <path id="_77114416" fill="none" stroke="#1F1A17" stroke-width="0.0762" d="M357.5 284c0.8283,0 1.5,0.6717 1.5,1.5 0,0.8283 -0.6717,1.5 -1.5,1.5 -0.8283,0 -1.5,-0.6717 -1.5,-1.5 0,-0.8283 0.6717,-1.5 1.5,-1.5z"/>
   <path id="_128477096" fill="none" stroke="#1F1A17" stroke-width="0.0762" d="M362.5 288.5c-0.2761,0 -0.5,-0.2239 -0.5,-0.5 0,-0.2761 0.2239,-0.5 0.5,-0.5l0 -4c-0.2761,0 -0.5,-0.2239 -0.5,-0.5 0,-0.2761 0.2239,-0.5 0.5,-0.5 0.2761,0 0.5,0.2239 0.5,0.5l9 0c0,-0.2761 0.2239,-0.5 0.5,-0.5 0.2761,0 0.5,0.2239 0.5,0.5 0,0.2761 -0.2239,0.5 -0.5,0.5l0 4c0.2761,0 0.5,0.2239 0.5,0.5 0,0.2761 -0.2239,0.5 -0.5,0.5 -0.2761,0 -0.5,-0.2239 -0.5,-0.5l-9 0c0,0.2761 -0.2239,0.5 -0.5,0.5z"/>
   <path id="_129074592" fill="none" stroke="#1F1A17" stroke-width="0.0762" d="M410 18l0 -11 -17 0 -2.5 0 0 3.9447 1.25 0 0 2.5 -1.25 0 0 4.5553 -3 0 0 -4.5553 -1.25 0 0 -2.5 1.25 0 0 -3.9447 -2.5 0 -9.5 0 -20 0 -16 0 -20 0 -34.5 0 0 11 0 6 0 1 0 1.5c0.2761,0 0.5,0.2239 0.5,0.5 0,0.2761 -0.2239,0.5 -0.5,0.5 -0.2761,0 -0.5,-0.2239 -0.5,-0.5l-4.5 0 0 10 4.5 0c0,-0.2761 0.2239,-0.5 0.5,-0.5 0.2761,0 0.5,0.2239 0.5,0.5 0,0.2761 -0.2239,0.5 -0.5,0.5l0 1.5 0 1.5 0 3 0 1.5 0 1.5c0.2761,0 0.5,0.2239 0.5,0.5 0,0.2761 -0.2239,0.5 -0.5,0.5 -0.2761,0 -0.5,-0.2239 -0.5,-0.5l-4.5 0 0 10 4.5 0c0,-0.2761 0.2239,-0.5 0.5,-0.5 0.2761,0 0.5,0.2239 0.5,0.5 0,0.2761 -0.2239,0.5 -0.5,0.5l0 2.5 0 71 0 1 0 1.5c0.2761,0 0.5,0.2239 0.5,0.5 0,0.2761 -0.2239,0.5 -0.5,0.5 -0.2761,0 -0.5,-0.2239 -0.5,-0.5l-4.5 0 0 10 4.5 0c0,-0.2761 0.2239,-0.5 0.5,-0.5 0.2761,0 0.5,0.2239 0.5,0.5 0,0.2761 -0.2239,0.5 -0.5,0.5l0 1.5 0 1.5 0 3 0 1.5 0 1.5c0.2761,0 0.5,0.2239 0.5,0.5 0,0.2761 -0.2239,0.5 -0.5,0.5 -0.2761,0 -0.5,-0.2239 -0.5,-0.5l-4.5 0 0 10 4.5 0c0,-0.2761 0.2239,-0.5 0.5,-0.5 0.2761,0 0.5,0.2239 0.5,0.5 0,0.2761 -0.2239,0.5 -0.5,0.5l0 2.5 0 71 0 1 0 1.5c0.2761,0 0.5,0.2239 0.5,0.5 0,0.2761 -0.2239,0.5 -0.5,0.5 -0.2761,0 -0.5,-0.2239 -0.5,-0.5l-4.5 0 0 10 4.5 0c0,-0.2761 0.2239,-0.5 0.5,-0.5 0.2761,0 0.5,0.2239 0.5,0.5 0,0.2761 -0.2239,0.5 -0.5,0.5l0 1.5 0 1.5 0 3 0 1.5 0 1.5c0.2761,0 0.5,0.2239 0.5,0.5 0,0.2761 -0.2239,0.5 -0.5,0.5 -0.2761,0 -0.5,-0.2239 -0.5,-0.5l-4.5 0 0 10 4.5 0c0,-0.2761 0.2239,-0.5 0.5,-0.5 0.2761,0 0.5,0.2239 0.5,0.5 0,0.2761 -0.2239,0.5 -0.5,0.5l0 2.5 0 6 0 11 34.5 0 20 0 16 0 20 0 9.5 0 2.5 0 0 -3.9447 -1.25 0 0 -2.5 1.25 0 0 -4.5553 3 0 0 4.5553 1.25 0 0 2.5 -1.25 0 0 3.9447 2.5 0 17 0 0 -11 0 -6 0 -1 0 -1.5c-0.2761,0 -0.5,-0.2239 -0.5,-0.5 0,-0.2761 0.2239,-0.5 0.5,-0.5 0.2761,0 0.5,0.2239 0.5,0.5l4.5 0 0 -10 -4.5 0c0,0.2761 -0.2239,0.5 -0.5,0.5 -0.2761,0 -0.5,-0.2239 -0.5,-0.5 0,-0.2761 0.2239,-0.5 0.5,-0.5l0 -3 -3.9447 0 0 1.25 -2.5 0 0 -1.25 -4.5553 0 0 -3 4.5553 0 0 -1.25 2.5 0 0 1.25 3.9447 0 0 -3c-0.2761,0 -0.5,-0.2239 -0.5,-0.5 0,-0.2761 0.2239,-0.5 0.5,-0.5 0.2761,0 0.5,0.2239 0.5,0.5l4.5 0 0 -10 -4.5 0c0,0.2761 -0.2239,0.5 -0.5,0.5 -0.2761,0 -0.5,-0.2239 -0.5,-0.5 0,-0.2761 0.2239,-0.5 0.5,-0.5l0 -2.5 0 -71 0 -1 0 -1.5c-0.2761,0 -0.5,-0.2239 -0.5,-0.5 0,-0.2761 0.2239,-0.5 0.5,-0.5 0.2761,0 0.5,0.2239 0.5,0.5l4.5 0 0 -10 -4.5 0c0,0.2761 -0.2239,0.5 -0.5,0.5 -0.2761,0 -0.5,-0.2239 -0.5,-0.5 0,-0.2761 0.2239,-0.5 0.5,-0.5l0 -3 -3.9447 0 0 1.25 -2.5 0 0 -1.25 -4.5553 0 0 -3 4.5553 0 0 -1.25 2.5 0 0 1.25 3.9447 0 0 -3c-0.2761,0 -0.5,-0.2239 -0.5,-0.5 0,-0.2761 0.2239,-0.5 0.5,-0.5 0.2761,0 0.5,0.2239 0.5,0.5l4.5 0 0 -10 -4.5 0c0,0.2761 -0.2239,0.5 -0.5,0.5 -0.2761,0 -0.5,-0.2239 -0.5,-0.5 0,-0.2761 0.2239,-0.5 0.5,-0.5l0 -2.5 0 -71 0 -1 0 -1.5c-0.2761,0 -0.5,-0.2239 -0.5,-0.5 0,-0.2761 0.2239,-0.5 0.5,-0.5 0.2761,0 0.5,0.2239 0.5,0.5l4.5 0 0 -10 -4.5 0c0,0.2761 -0.2239,0.5 -0.5,0.5 -0.2761,0 -0.5,-0.2239 -0.5,-0.5 0,-0.2761 0.2239,-0.5 0.5,-0.5l0 -3 -3.9447 0 0 1.25 -2.5 0 0 -1.25 -4.5553 0 0 -3 4.5553 0 0 -1.25 2.5 0 0 1.25 3.9447 0 0 -3c-0.2761,0 -0.5,-0.2239 -0.5,-0.5 0,-0.2761 0.2239,-0.5 0.5,-0.5 0.2761,0 0.5,0.2239 0.5,0.5l4.5 0 0 -10 -4.5 0c0,0.2761 -0.2239,0.5 -0.5,0.5 -0.2761,0 -0.5,-0.2239 -0.5,-0.5 0,-0.2761 0.2239,-0.5 0.5,-0.5l0 -2.5 0 -6zm-93 225l10 0 0 19 -10 0 0 -19zm0 -207l10 0 0 19 -10 0 0 -19z"/>
   <path id="_77068248" fill="none" stroke="#1F1A17" stroke-width="0.0762" d="M337.5 11c0.8283,0 1.5,0.6717 1.5,1.5 0,0.8283 -0.6717,1.5 -1.5,1.5 -0.8283,0 -1.5,-0.6717 -1.5,-1.5 0,-0.8283 0.6717,-1.5 1.5,-1.5z"/>
   <path id="_76765888" fill="none" stroke="#1F1A17" stroke-width="0.0762" d="M322.5 15.5c-0.2761,0 -0.5,-0.2239 -0.5,-0.5 0,-0.2761 0.2239,-0.5 0.5,-0.5l0 -4c-0.2761,0 -0.5,-0.2239 -0.5,-0.5 0,-0.2761 0.2239,-0.5 0.5,-0.5 0.2761,0 0.5,0.2239 0.5,0.5l9 0c0,-0.2761 0.2239,-0.5 0.5,-0.5 0.2761,0 0.5,0.2239 0.5,0.5 0,0.2761 -0.2239,0.5 -0.5,0.5l0 4c0.2761,0 0.5,0.2239 0.5,0.5 0,0.2761 -0.2239,0.5 -0.5,0.5 -0.2761,0 -0.5,-0.2239 -0.5,-0.5l-9 0c0,0.2761 -0.2239,0.5 -0.5,0.5z"/>
   <path id="_132991880" fill="none" stroke="#1F1A17" stroke-width="0.0762" d="M342.5 15.5c-0.2761,0 -0.5,-0.2239 -0.5,-0.5 0,-0.2761 0.2239,-0.5 0.5,-0.5l0 -4c-0.2761,0 -0.5,-0.2239 -0.5,-0.5 0,-0.2761 0.2239,-0.5 0.5,-0.5 0.2761,0 0.5,0.2239 0.5,0.5l9 0c0,-0.2761 0.2239,-0.5 0.5,-0.5 0.2761,0 0.5,0.2239 0.5,0.5 0,0.2761 -0.2239,0.5 -0.5,0.5l0 4c0.2761,0 0.5,0.2239 0.5,0.5 0,0.2761 -0.2239,0.5 -0.5,0.5 -0.2761,0 -0.5,-0.2239 -0.5,-0.5l-9 0c0,0.2761 -0.2239,0.5 -0.5,0.5z"/>
   <path id="_128586576" fill="none" stroke="#1F1A17" stroke-width="0.0762" d="M357.5 11c0.8283,0 1.5,0.6717 1.5,1.5 0,0.8283 -0.6717,1.5 -1.5,1.5 -0.8283,0 -1.5,-0.6717 -1.5,-1.5 0,-0.8283 0.6717,-1.5 1.5,-1.5z"/>
   <path id="_72346608" fill="none" stroke="#1F1A17" stroke-width="0.0762" d="M362.5 15.5c-0.2761,0 -0.5,-0.2239 -0.5,-0.5 0,-0.2761 0.2239,-0.5 0.5,-0.5l0 -4c-0.2761,0 -0.5,-0.2239 -0.5,-0.5 0,-0.2761 0.2239,-0.5 0.5,-0.5 0.2761,0 0.5,0.2239 0.5,0.5l9 0c0,-0.2761 0.2239,-0.5 0.5,-0.5 0.2761,0 0.5,0.2239 0.5,0.5 0,0.2761 -0.2239,0.5 -0.5,0.5l0 4c0.2761,0 0.5,0.2239 0.5,0.5 0,0.2761 -0.2239,0.5 -0.5,0.5 -0.2761,0 -0.5,-0.2239 -0.5,-0.5l-9 0c0,0.2761 -0.2239,0.5 -0.5,0.5z"/>
  </g>
  <path fill="none" stroke="#1F1A17" stroke-width="0.0762" d="M6 123.5l0 -2.5c0.2761,0 0.5,-0.2239 0.5,-0.5 0,-0.2761 -0.2239,-0.5 -0.5,-0.5 -0.2761,0 -0.5,0.2239 -0.5,0.5l-4.5 0 0 -10 4.5 0c0,0.2761 0.2239,0.5 0.5,0.5 0.2761,0 0.5,-0.2239 0.5,-0.5 0,-0.2761 -0.2239,-0.5 -0.5,-0.5l0 -3 3.9447 0 0 1.25 2.5 0 0 -1.25 4.5553 0 0 -3 -4.5553 0 0 -1.25 -2.5 0 0 1.25 -3.9447 0 0 -1.5004 0 -1.4732 0 -0.0264c0.2716,0 0.4927,-0.2167 0.4998,-0.4865l0 -0.0006c-0.0071,-0.2699 -0.2282,-0.4865 -0.4998,-0.4865 -0.2761,0 -0.5,0.2239 -0.5,0.5l-4.5 0 0 -0.0264 0 -9.9736 0 -0.0264 4.5 0c0,0.2761 0.2239,0.5 0.5,0.5 0.2716,0 0.4927,-0.2167 0.4998,-0.4865l0 -0.0006c-0.0071,-0.2699 -0.2282,-0.4865 -0.4998,-0.4865l0 -0.0264 0 -0.5 0 -2.4736 3.9447 0 0 1.25 2.5 0 0 -1.25 4.5553 0 0 -3 -4.5553 0 0 -1.25 -2.5 0 0 1.25 -3.9447 0 0 -3c0.2761,0 0.5,-0.2239 0.5,-0.5 0,-0.2761 -0.2239,-0.5 -0.5,-0.5 -0.2761,0 -0.5,0.2239 -0.5,0.5l-4.5 0 0 -10 4.5 0c0,0.2761 0.2239,0.5 0.5,0.5 0.2761,0 0.5,-0.2239 0.5,-0.5 0,-0.2761 -0.2239,-0.5 -0.5,-0.5l0 -0.75 0 -0.75 0 -1 0 -0.0008 0 -1.5258 0 -33 9 0 0 -5 0 -5 0 -3 0 -8 0 -6 2.5 0c0,0.2761 0.2239,0.5 0.5,0.5 0.2761,0 0.5,-0.2239 0.5,-0.5 0,-0.2761 -0.2239,-0.5 -0.5,-0.5l0 -4.5 10 0 0 4.5c-0.2761,0 -0.5,0.2239 -0.5,0.5 0,0.2761 0.2239,0.5 0.5,0.5 0.2761,0 0.5,-0.2239 0.5,-0.5l3 0 0 3.9447 -1.25 0 0 2.5 1.25 0 0 4.5553 3 0 0 -4.5553 1.25 0 0 -2.5 -1.25 0 0 -3.9447 3 0c0,0.2761 0.2239,0.5 0.5,0.5 0.2761,0 0.5,-0.2239 0.5,-0.5 0,-0.2761 -0.2239,-0.5 -0.5,-0.5l0 -4.5 10 0 0 4.5c-0.2761,0 -0.5,0.2239 -0.5,0.5 0,0.2761 0.2239,0.5 0.5,0.5 0.2761,0 0.5,-0.2239 0.5,-0.5l1.5 0 1 0 9 0 0 22 0 2.5c-0.2761,0 -0.5,0.2239 -0.5,0.5 0,0.2761 0.2239,0.5 0.5,0.5 0.2761,0 0.5,-0.2239 0.5,-0.5l4.5 0 0 10 -4.5 0c0,-0.2761 -0.2239,-0.5 -0.5,-0.5 -0.2761,0 -0.5,0.2239 -0.5,0.5 0,0.2761 0.2239,0.5 0.5,0.5l0 3 -3.9447 0 0 -1.25 -2.5 0 0 1.25 -4.5553 0 0 3 4.5553 0 0 1.25 2.5 0 0 -1.25 3.9447 0 0 3c-0.2761,0 -0.5,0.2239 -0.5,0.5 0,0.2761 0.2239,0.5 0.5,0.5 0.2761,0 0.5,-0.2239 0.5,-0.5l4.5 0 0 10 -4.5 0c0,-0.2761 -0.2239,-0.5 -0.5,-0.5 -0.2761,0 -0.5,0.2239 -0.5,0.5 0,0.2761 0.2239,0.5 0.5,0.5l0 1.5 0 1 0 41 0 2.5c-0.2761,0 -0.5,0.2239 -0.5,0.5 0,0.2761 0.2239,0.5 0.5,0.5 0.2761,0 0.5,-0.2239 0.5,-0.5l4.5 0 0 10 -4.5 0c0,-0.2761 -0.2239,-0.5 -0.5,-0.5 -0.2761,0 -0.5,0.2239 -0.5,0.5 0,0.2761 0.2239,0.5 0.5,0.5l0 3 -3.9447 0 0 -1.25 -2.5 0 0 1.25 -4.5553 0 0 3 4.5553 0 0 1.25 2.5 0 0 -1.25 3.9447 0 0 3c-0.2761,0 -0.5,0.2239 -0.5,0.5 0,0.2761 0.2239,0.5 0.5,0.5 0.2761,0 0.5,-0.2239 0.5,-0.5l4.5 0 0 10 -4.5 0c0,-0.2761 -0.2239,-0.5 -0.5,-0.5 -0.2761,0 -0.5,0.2239 -0.5,0.5 0,0.2761 0.2239,0.5 0.5,0.5l0 1.5 0 1 0 17 -17 0 -37 0 0 -34.4998z"/>
  <g id="_73784168">
   <path id="_73778088" fill="none" stroke="#1F1A17" stroke-width="0.0762" d="M425.87 108.084l0 -36 11 0 17 0 0 18 19 19 11 0 0 -5.7c0,-0.715 0.585,-1.3 1.3,-1.3l33.4 0c0.715,0 1.3,0.585 1.3,1.3l0 11.7 0 2 0 8 -24 0 -12 0 -5 0 -36 0 -17 0 0 -11 0 -6z"/>
   <g>
    <circle id="_72519968" fill="none" stroke="#1F1A17" stroke-width="0.0762" cx="516.87" cy="105.084" r="1"/>
    <circle id="_74031256" fill="none" stroke="#1F1A17" stroke-width="0.0762" cx="516.87" cy="113.084" r="1"/>
    <circle id="_78372680" fill="none" stroke="#1F1A17" stroke-width="0.0762" cx="486.87" cy="105.084" r="1"/>
    <circle id="_73380128" fill="none" stroke="#1F1A17" stroke-width="0.0762" cx="486.87" cy="113.084" r="1"/>
    <circle id="_73277592" fill="none" stroke="#1F1A17" stroke-width="0.0762" cx="501.87" cy="119.584" r="1.5"/>
    <path id="_73100272" fill="none" stroke="#1F1A17" stroke-width="0.0762" d="M516.87 116.584c0.2761,0 0.5,0.2239 0.5,0.5 0,0.2761 -0.2239,0.5 -0.5,0.5l0 4c0.2761,0 0.5,0.2239 0.5,0.5 0,0.2761 -0.2239,0.5 -0.5,0.5 -0.2761,0 -0.5,-0.2239 -0.5,-0.5l-9 0c0,0.2761 -0.2239,0.5 -0.5,0.5 -0.2761,0 -0.5,-0.2239 -0.5,-0.5 0,-0.2761 0.2239,-0.5 0.5,-0.5l0 -4c-0.2761,0 -0.5,-0.2239 -0.5,-0.5 0,-0.2761 0.2239,-0.5 0.5,-0.5 0.2761,0 0.5,0.2239 0.5,0.5l9 0c0,-0.2761 0.2239,-0.5 0.5,-0.5z"/>
    <path id="_79250360" fill="none" stroke="#1F1A17" stroke-width="0.0762" d="M496.87 116.584c0.2761,0 0.5,0.2239 0.5,0.5 0,0.2761 -0.2239,0.5 -0.5,0.5l0 4c0.2761,0 0.5,0.2239 0.5,0.5 0,0.2761 -0.2239,0.5 -0.5,0.5 -0.2761,0 -0.5,-0.2239 -0.5,-0.5l-9 0c0,0.2761 -0.2239,0.5 -0.5,0.5 -0.2761,0 -0.5,-0.2239 -0.5,-0.5 0,-0.2761 0.2239,-0.5 0.5,-0.5l0 -4c-0.2761,0 -0.5,-0.2239 -0.5,-0.5 0,-0.2761 0.2239,-0.5 0.5,-0.5 0.2761,0 0.5,0.2239 0.5,0.5l9 0c0,-0.2761 0.2239,-0.5 0.5,-0.5z"/>
    <circle id="_74509296" fill="none" stroke="#1F1A17" stroke-width="0.0762" transform="matrix(1.32423E-013 -1 1 1.32423E-013 431.37 90.0842)" r="1.5"/>
    <path id="_73774672" fill="none" stroke="#1F1A17" stroke-width="0.0762" d="M434.37 105.084c0,0.2761 -0.2239,0.5 -0.5,0.5 -0.2761,0 -0.5,-0.2239 -0.5,-0.5l-4 0c0,0.2761 -0.2239,0.5 -0.5,0.5 -0.2761,0 -0.5,-0.2239 -0.5,-0.5 0,-0.2761 0.2239,-0.5 0.5,-0.5l0 -9c-0.2761,0 -0.5,-0.2239 -0.5,-0.5 0,-0.2761 0.2239,-0.5 0.5,-0.5 0.2761,0 0.5,0.2239 0.5,0.5l4 0c0,-0.2761 0.2239,-0.5 0.5,-0.5 0.2761,0 0.5,0.2239 0.5,0.5 0,0.2761 -0.2239,0.5 -0.5,0.5l0 9c0.2761,0 0.5,0.2239 0.5,0.5z"/>
    <path id="_74501104" fill="none" stroke="#1F1A17" stroke-width="0.0762" d="M434.37 85.0842c0,0.2761 -0.2239,0.5 -0.5,0.5 -0.2761,0 -0.5,-0.2239 -0.5,-0.5l-4 0c0,0.2761 -0.2239,0.5 -0.5,0.5 -0.2761,0 -0.5,-0.2239 -0.5,-0.5 0,-0.2761 0.2239,-0.5 0.5,-0.5l0 -9c-0.2761,0 -0.5,-0.2239 -0.5,-0.5 0,-0.2761 0.2239,-0.5 0.5,-0.5 0.2761,0 0.5,0.2239 0.5,0.5l4 0c0,-0.2761 0.2239,-0.5 0.5,-0.5 0.2761,0 0.5,0.2239 0.5,0.5 0,0.2761 -0.2239,0.5 -0.5,0.5l0 9c0.2761,0 0.5,0.2239 0.5,0.5z"/>
   </g>
  </g>
  <g id="_73038696">
   <circle id="_72174440" fill="none" stroke="#1F1A17" stroke-width="0.0762" transform="matrix(2.64845E-014 -1 1 2.64845E-014 431 182.555)" r="1.5"/>
   <path id="_72454432" fill="none" stroke="#1F1A17" stroke-width="0.0762" d="M434 197.555c0,0.2761 -0.2239,0.5 -0.5,0.5 -0.2761,0 -0.5,-0.2239 -0.5,-0.5l-4 0c0,0.2761 -0.2239,0.5 -0.5,0.5 -0.2761,0 -0.5,-0.2239 -0.5,-0.5 0,-0.2761 0.2239,-0.5 0.5,-0.5l0 -9c-0.2761,0 -0.5,-0.2239 -0.5,-0.5 0,-0.2761 0.2239,-0.5 0.5,-0.5 0.2761,0 0.5,0.2239 0.5,0.5l4 0c0,-0.2761 0.2239,-0.5 0.5,-0.5 0.2761,0 0.5,0.2239 0.5,0.5 0,0.2761 -0.2239,0.5 -0.5,0.5l0 9c0.2761,0 0.5,0.2239 0.5,0.5z"/>
   <path id="_79494512" fill="none" stroke="#1F1A17" stroke-width="0.0762" d="M434 177.555c0,0.2761 -0.2239,0.5 -0.5,0.5 -0.2761,0 -0.5,-0.2239 -0.5,-0.5l-4 0c0,0.2761 -0.2239,0.5 -0.5,0.5 -0.2761,0 -0.5,-0.2239 -0.5,-0.5 0,-0.2761 0.2239,-0.5 0.5,-0.5l0 -9c-0.2761,0 -0.5,-0.2239 -0.5,-0.5 0,-0.2761 0.2239,-0.5 0.5,-0.5 0.2761,0 0.5,0.2239 0.5,0.5l4 0c0,-0.2761 0.2239,-0.5 0.5,-0.5 0.2761,0 0.5,0.2239 0.5,0.5 0,0.2761 -0.2239,0.5 -0.5,0.5l0 9c0.2761,0 0.5,0.2239 0.5,0.5z"/>
   <circle id="_78032808" fill="none" stroke="#1F1A17" stroke-width="0.0762" transform="matrix(2.64845E-014 -1 1 2.64845E-014 431 162.555)" r="1.5"/>
   <path id="_74419184" fill="none" stroke="#1F1A17" stroke-width="0.0762" d="M434 157.555c0,0.2761 -0.2239,0.5 -0.5,0.5 -0.2761,0 -0.5,-0.2239 -0.5,-0.5l-4 0c0,0.2761 -0.2239,0.5 -0.5,0.5 -0.2761,0 -0.5,-0.2239 -0.5,-0.5 0,-0.2761 0.2239,-0.5 0.5,-0.5l0 -9c-0.2761,0 -0.5,-0.2239 -0.5,-0.5 0,-0.2761 0.2239,-0.5 0.5,-0.5 0.2761,0 0.5,0.2239 0.5,0.5l4 0c0,-0.2761 0.2239,-0.5 0.5,-0.5 0.2761,0 0.5,0.2239 0.5,0.5 0,0.2761 -0.2239,0.5 -0.5,0.5l0 9c0.2761,0 0.5,0.2239 0.5,0.5z"/>
   <circle id="_72025864" fill="none" stroke="#1F1A17" stroke-width="0.0762" transform="matrix(2.64845E-014 -1 1 2.64845E-014 490 182.555)" r="1.5"/>
   <path id="_73897552" fill="none" stroke="#1F1A17" stroke-width="0.0762" d="M493 197.555c0,0.2761 -0.2239,0.5 -0.5,0.5 -0.2761,0 -0.5,-0.2239 -0.5,-0.5l-4 0c0,0.2761 -0.2239,0.5 -0.5,0.5 -0.2761,0 -0.5,-0.2239 -0.5,-0.5 0,-0.2761 0.2239,-0.5 0.5,-0.5l0 -9c-0.2761,0 -0.5,-0.2239 -0.5,-0.5 0,-0.2761 0.2239,-0.5 0.5,-0.5 0.2761,0 0.5,0.2239 0.5,0.5l4 0c0,-0.2761 0.2239,-0.5 0.5,-0.5 0.2761,0 0.5,0.2239 0.5,0.5 0,0.2761 -0.2239,0.5 -0.5,0.5l0 9c0.2761,0 0.5,0.2239 0.5,0.5z"/>
   <path id="_79368024" fill="none" stroke="#1F1A17" stroke-width="0.0762" d="M493 177.555c0,0.2761 -0.2239,0.5 -0.5,0.5 -0.2761,0 -0.5,-0.2239 -0.5,-0.5l-4 0c0,0.2761 -0.2239,0.5 -0.5,0.5 -0.2761,0 -0.5,-0.2239 -0.5,-0.5 0,-0.2761 0.2239,-0.5 0.5,-0.5l0 -9c-0.2761,0 -0.5,-0.2239 -0.5,-0.5 0,-0.2761 0.2239,-0.5 0.5,-0.5 0.2761,0 0.5,0.2239 0.5,0.5l4 0c0,-0.2761 0.2239,-0.5 0.5,-0.5 0.2761,0 0.5,0.2239 0.5,0.5 0,0.2761 -0.2239,0.5 -0.5,0.5l0 9c0.2761,0 0.5,0.2239 0.5,0.5z"/>
   <circle id="_72014344" fill="none" stroke="#1F1A17" stroke-width="0.0762" transform="matrix(2.64845E-014 -1 1 2.64845E-014 490 162.555)" r="1.5"/>
   <path id="_131093768" fill="none" stroke="#1F1A17" stroke-width="0.0762" d="M493 157.555c0,0.2761 -0.2239,0.5 -0.5,0.5 -0.2761,0 -0.5,-0.2239 -0.5,-0.5l-4 0c0,0.2761 -0.2239,0.5 -0.5,0.5 -0.2761,0 -0.5,-0.2239 -0.5,-0.5 0,-0.2761 0.2239,-0.5 0.5,-0.5l0 -9c-0.2761,0 -0.5,-0.2239 -0.5,-0.5 0,-0.2761 0.2239,-0.5 0.5,-0.5 0.2761,0 0.5,0.2239 0.5,0.5l4 0c0,-0.2761 0.2239,-0.5 0.5,-0.5 0.2761,0 0.5,0.2239 0.5,0.5 0,0.2761 -0.2239,0.5 -0.5,0.5l0 9c0.2761,0 0.5,0.2239 0.5,0.5z"/>
   <path id="_72859800" fill="none" stroke="#1F1A17" stroke-width="0.0762" d="M495.5 144.555l0 -7 -17 0 -1 0 -1.5 0c0,0.2761 -0.2239,0.5 -0.5,0.5 -0.2761,0 -0.5,-0.2239 -0.5,-0.5 0,-0.2761 0.2239,-0.5 0.5,-0.5l0 -4.5 -10 0 0 4.5c0.2761,0 0.5,0.2239 0.5,0.5 0,0.2761 -0.2239,0.5 -0.5,0.5 -0.2761,0 -0.5,-0.2239 -0.5,-0.5l-3 0 0 3.9447 1.25 0 0 2.5 -1.25 0 0 4.5553 -3 0 0 -4.5553 -1.25 0 0 -2.5 1.25 0 0 -3.9447 -3 0c0,0.2761 -0.2239,0.5 -0.5,0.5 -0.2761,0 -0.5,-0.2239 -0.5,-0.5 0,-0.2761 0.2239,-0.5 0.5,-0.5l0 -4.5 -10 0 0 4.5c0.2761,0 0.5,0.2239 0.5,0.5 0,0.2761 -0.2239,0.5 -0.5,0.5 -0.2761,0 -0.5,-0.2239 -0.5,-0.5l-2.5 0 -17 0 0 7 0 20 0 16 0 20 0 7 17 0 1 0 1.5 0c0,-0.2761 0.2239,-0.5 0.5,-0.5 0.2761,0 0.5,0.2239 0.5,0.5 0,0.2761 -0.2239,0.5 -0.5,0.5l0 4.5 10 0 0 -4.5c-0.2761,0 -0.5,-0.2239 -0.5,-0.5 0,-0.2761 0.2239,-0.5 0.5,-0.5 0.2761,0 0.5,0.2239 0.5,0.5l1.5 0 1.5 0 3 0 1.5 0 1.5 0c0,-0.2761 0.2239,-0.5 0.5,-0.5 0.2761,0 0.5,0.2239 0.5,0.5 0,0.2761 -0.2239,0.5 -0.5,0.5l0 4.5 10 0 0 -4.5c-0.2761,0 -0.5,-0.2239 -0.5,-0.5 0,-0.2761 0.2239,-0.5 0.5,-0.5 0.2761,0 0.5,0.2239 0.5,0.5l2.5 0 17 0 0 -7 0 -20 0 -16 0 -20z"/>
  </g>
  <g id="_73912608">
   <rect id="_126735328" fill="none" stroke="#1F1A17" stroke-width="0.0762" x="521.24" y="177.555" width="15" height="10"/>
   <path id="_73913936" fill="none" stroke="#1F1A17" stroke-width="0.0762" d="M521.24 187.555l15 0 0 -9.9992 -15 0 0 9.9992zm25.2602 20l9 0 0 -7.0006 0 -1 0 -1.5c-0.2761,0 -0.5,-0.2239 -0.5,-0.5 0,-0.2761 0.2239,-0.5 0.5,-0.5 0.2761,0 0.5,0.2239 0.5,0.5l4.5 0 0 -10 -4.5 0c0,0.2761 -0.2239,0.5 -0.5,0.5 -0.2761,0 -0.5,-0.2239 -0.5,-0.5 0,-0.2761 0.2239,-0.5 0.5,-0.5l0 -3 -3.9447 0 0 1.25 -2.5 0 0 -1.25 -4.5553 0 0 -3 4.5553 0 0 -1.25 2.5 0 0 1.25 3.9447 0 0 -2.4736 0 -0.5 0 -0.0264c-0.2716,0 -0.4927,-0.2166 -0.4998,-0.4865l0 -0.0006c0.0071,-0.2698 0.2282,-0.4865 0.4998,-0.4865 0.2761,0 0.5,0.2239 0.5,0.5l4.5 0 0 -0.0264 0 -9.9736 0 -0.0264 -4.5 0c0,0.2761 -0.2239,0.5 -0.5,0.5 -0.2716,0 -0.4927,-0.2166 -0.4998,-0.4865l0 -0.0006c0.0071,-0.2698 0.2282,-0.4865 0.4998,-0.4865l0 -0.0264 0 -1.4732 0 -1.5004 -3.9447 0 0 1.25 -2.5 0 0 -1.25 -4.5553 0 0 -3 4.5553 0 0 -1.25 2.5 0 0 1.25 3.9447 0 0 -3c-0.2761,0 -0.5,-0.2239 -0.5,-0.5 0,-0.2761 0.2239,-0.5 0.5,-0.5 0.2761,0 0.5,0.2239 0.5,0.5l4.5 0 0 -10 -4.5 0c0,0.2761 -0.2239,0.5 -0.5,0.5 -0.2761,0 -0.5,-0.2239 -0.5,-0.5 0,-0.2761 0.2239,-0.5 0.5,-0.5l0 -2.5 0 -7.0258 -9 0 -1 0 -1.5 0c0,0.2761 -0.2239,0.5 -0.5,0.5 -0.2761,0 -0.5,-0.2239 -0.5,-0.5 0,-0.2761 0.2239,-0.5 0.5,-0.5l0 -4.5 -10 0 0 4.5c0.2761,0 0.5,0.2239 0.5,0.5 0,0.2761 -0.2239,0.5 -0.5,0.5 -0.2761,0 -0.5,-0.2239 -0.5,-0.5l-3 0 0 3.9447 1.25 0 0 2.5 -1.25 0 0 4.5553 -3 0 0 -4.5553 -1.25 0 0 -2.5 1.25 0 0 -3.9447 -3 0c0,0.2761 -0.2239,0.5 -0.5,0.5 -0.2761,0 -0.5,-0.2239 -0.5,-0.5 0,-0.2761 0.2239,-0.5 0.5,-0.5l0 -4.5 -10 0 0 4.5c0.2761,0 0.5,0.2239 0.5,0.5 0,0.2761 -0.2239,0.5 -0.5,0.5 -0.2761,0 -0.5,-0.2239 -0.5,-0.5l-2.5 0 -9 0 0 7.0266 0 1 0 1.5c0.2761,0 0.5,0.2239 0.5,0.5 0,0.2761 -0.2239,0.5 -0.5,0.5 -0.2761,0 -0.5,-0.2239 -0.5,-0.5l-4.5 0 0 10 4.5 0c0,-0.2761 0.2239,-0.5 0.5,-0.5 0.2761,0 0.5,0.2239 0.5,0.5 0,0.2761 -0.2239,0.5 -0.5,0.5l0 3 3.9447 0 0 -1.25 2.5 0 0 1.25 4.5553 0 0 3 -4.5553 0 0 1.25 -2.5 0 0 -1.25 -3.9447 0 0 2.4736 0 0.5 0 0.0264c0.2716,0 0.4927,0.2166 0.4998,0.4865l0 0.0006c-0.0071,0.2698 -0.2282,0.4865 -0.4998,0.4865 -0.2761,0 -0.5,-0.2239 -0.5,-0.5l-4.5 0 0 0.0264 0 9.9736 0 0.0264 4.5 0c0,-0.2761 0.2239,-0.5 0.5,-0.5 0.2716,0 0.4927,0.2166 0.4998,0.4865l0 0.0006c-0.0071,0.2698 -0.2282,0.4865 -0.4998,0.4865l0 0.0264 0 1.4732 0 1.5004 3.9447 0 0 -1.25 2.5 0 0 1.25 4.5553 0 0 3 -4.5553 0 0 1.25 -2.5 0 0 -1.25 -3.9447 0 0 3c0.2761,0 0.5,0.2239 0.5,0.5 0,0.2761 -0.2239,0.5 -0.5,0.5 -0.2761,0 -0.5,-0.2239 -0.5,-0.5l-4.5 0 0 10 4.5 0c0,-0.2761 0.2239,-0.5 0.5,-0.5 0.2761,0 0.5,0.2239 0.5,0.5 0,0.2761 -0.2239,0.5 -0.5,0.5l0 2.5 0 6.9998 9 0 1 0 1.5 0c0,-0.2761 0.2239,-0.5 0.5,-0.5 0.2761,0 0.5,0.2239 0.5,0.5 0,0.2761 -0.2239,0.5 -0.5,0.5l0 4.5 10 0 0 -4.5c-0.2761,0 -0.5,-0.2239 -0.5,-0.5 0,-0.2761 0.2239,-0.5 0.5,-0.5 0.2761,0 0.5,0.2239 0.5,0.5l1.5 0 1.5 0 3 0 1.5 0 1.5 0c0,-0.2761 0.2239,-0.5 0.5,-0.5 0.2761,0 0.5,0.2239 0.5,0.5 0,0.2761 -0.2239,0.5 -0.5,0.5l0 4.5 10 0 0 -4.5c-0.2761,0 -0.5,-0.2239 -0.5,-0.5 0,-0.2761 0.2239,-0.5 0.5,-0.5 0.2761,0 0.5,0.2239 0.5,0.5l2.5 0z"/>
  </g>
  <g id="_73274960">
   <circle id="_71995856" fill="none" stroke="#1F1A17" stroke-width="0.0762" transform="matrix(2.64845E-014 -1 1 2.64845E-014 431 263.555)" r="1.5"/>
   <path id="_127979784" fill="none" stroke="#1F1A17" stroke-width="0.0762" d="M434 278.555c0,0.2761 -0.2239,0.5 -0.5,0.5 -0.2761,0 -0.5,-0.2239 -0.5,-0.5l-4 0c0,0.2761 -0.2239,0.5 -0.5,0.5 -0.2761,0 -0.5,-0.2239 -0.5,-0.5 0,-0.2761 0.2239,-0.5 0.5,-0.5l0 -9c-0.2761,0 -0.5,-0.2239 -0.5,-0.5 0,-0.2761 0.2239,-0.5 0.5,-0.5 0.2761,0 0.5,0.2239 0.5,0.5l4 0c0,-0.2761 0.2239,-0.5 0.5,-0.5 0.2761,0 0.5,0.2239 0.5,0.5 0,0.2761 -0.2239,0.5 -0.5,0.5l0 9c0.2761,0 0.5,0.2239 0.5,0.5z"/>
   <path id="_73210728" fill="none" stroke="#1F1A17" stroke-width="0.0762" d="M434 258.555c0,0.2761 -0.2239,0.5 -0.5,0.5 -0.2761,0 -0.5,-0.2239 -0.5,-0.5l-4 0c0,0.2761 -0.2239,0.5 -0.5,0.5 -0.2761,0 -0.5,-0.2239 -0.5,-0.5 0,-0.2761 0.2239,-0.5 0.5,-0.5l0 -9c-0.2761,0 -0.5,-0.2239 -0.5,-0.5 0,-0.2761 0.2239,-0.5 0.5,-0.5 0.2761,0 0.5,0.2239 0.5,0.5l4 0c0,-0.2761 0.2239,-0.5 0.5,-0.5 0.2761,0 0.5,0.2239 0.5,0.5 0,0.2761 -0.2239,0.5 -0.5,0.5l0 9c0.2761,0 0.5,0.2239 0.5,0.5z"/>
   <circle id="_73791056" fill="none" stroke="#1F1A17" stroke-width="0.0762" transform="matrix(2.64845E-014 -1 1 2.64845E-014 431 243.555)" r="1.5"/>
   <path id="_73904416" fill="none" stroke="#1F1A17" stroke-width="0.0762" d="M434 238.555c0,0.2761 -0.2239,0.5 -0.5,0.5 -0.2761,0 -0.5,-0.2239 -0.5,-0.5l-4 0c0,0.2761 -0.2239,0.5 -0.5,0.5 -0.2761,0 -0.5,-0.2239 -0.5,-0.5 0,-0.2761 0.2239,-0.5 0.5,-0.5l0 -9c-0.2761,0 -0.5,-0.2239 -0.5,-0.5 0,-0.2761 0.2239,-0.5 0.5,-0.5 0.2761,0 0.5,0.2239 0.5,0.5l4 0c0,-0.2761 0.2239,-0.5 0.5,-0.5 0.2761,0 0.5,0.2239 0.5,0.5 0,0.2761 -0.2239,0.5 -0.5,0.5l0 9c0.2761,0 0.5,0.2239 0.5,0.5z"/>
   <circle id="_79126448" fill="none" stroke="#1F1A17" stroke-width="0.0762" transform="matrix(2.64845E-014 -1 1 2.64845E-014 490 263.555)" r="1.5"/>
   <path id="_74140656" fill="none" stroke="#1F1A17" stroke-width="0.0762" d="M493 278.555c0,0.2761 -0.2239,0.5 -0.5,0.5 -0.2761,0 -0.5,-0.2239 -0.5,-0.5l-4 0c0,0.2761 -0.2239,0.5 -0.5,0.5 -0.2761,0 -0.5,-0.2239 -0.5,-0.5 0,-0.2761 0.2239,-0.5 0.5,-0.5l0 -9c-0.2761,0 -0.5,-0.2239 -0.5,-0.5 0,-0.2761 0.2239,-0.5 0.5,-0.5 0.2761,0 0.5,0.2239 0.5,0.5l4 0c0,-0.2761 0.2239,-0.5 0.5,-0.5 0.2761,0 0.5,0.2239 0.5,0.5 0,0.2761 -0.2239,0.5 -0.5,0.5l0 9c0.2761,0 0.5,0.2239 0.5,0.5z"/>
   <path id="_78867168" fill="none" stroke="#1F1A17" stroke-width="0.0762" d="M493 258.555c0,0.2761 -0.2239,0.5 -0.5,0.5 -0.2761,0 -0.5,-0.2239 -0.5,-0.5l-4 0c0,0.2761 -0.2239,0.5 -0.5,0.5 -0.2761,0 -0.5,-0.2239 -0.5,-0.5 0,-0.2761 0.2239,-0.5 0.5,-0.5l0 -9c-0.2761,0 -0.5,-0.2239 -0.5,-0.5 0,-0.2761 0.2239,-0.5 0.5,-0.5 0.2761,0 0.5,0.2239 0.5,0.5l4 0c0,-0.2761 0.2239,-0.5 0.5,-0.5 0.2761,0 0.5,0.2239 0.5,0.5 0,0.2761 -0.2239,0.5 -0.5,0.5l0 9c0.2761,0 0.5,0.2239 0.5,0.5z"/>
   <circle id="_72511776" fill="none" stroke="#1F1A17" stroke-width="0.0762" transform="matrix(2.64845E-014 -1 1 2.64845E-014 490 243.555)" r="1.5"/>
   <path id="_74249808" fill="none" stroke="#1F1A17" stroke-width="0.0762" d="M493 238.555c0,0.2761 -0.2239,0.5 -0.5,0.5 -0.2761,0 -0.5,-0.2239 -0.5,-0.5l-4 0c0,0.2761 -0.2239,0.5 -0.5,0.5 -0.2761,0 -0.5,-0.2239 -0.5,-0.5 0,-0.2761 0.2239,-0.5 0.5,-0.5l0 -9c-0.2761,0 -0.5,-0.2239 -0.5,-0.5 0,-0.2761 0.2239,-0.5 0.5,-0.5 0.2761,0 0.5,0.2239 0.5,0.5l4 0c0,-0.2761 0.2239,-0.5 0.5,-0.5 0.2761,0 0.5,0.2239 0.5,0.5 0,0.2761 -0.2239,0.5 -0.5,0.5l0 9c0.2761,0 0.5,0.2239 0.5,0.5z"/>
   <path id="_73276264" fill="none" stroke="#1F1A17" stroke-width="0.0762" d="M495.5 225.555l0 -7 -17 0 -1 0 -1.5 0c0,0.2761 -0.2239,0.5 -0.5,0.5 -0.2761,0 -0.5,-0.2239 -0.5,-0.5 0,-0.2761 0.2239,-0.5 0.5,-0.5l0 -4.5 -10 0 0 4.5c0.2761,0 0.5,0.2239 0.5,0.5 0,0.2761 -0.2239,0.5 -0.5,0.5 -0.2761,0 -0.5,-0.2239 -0.5,-0.5l-3 0 0 3.9447 1.25 0 0 2.5 -1.25 0 0 4.5553 -3 0 0 -4.5553 -1.25 0 0 -2.5 1.25 0 0 -3.9447 -3 0c0,0.2761 -0.2239,0.5 -0.5,0.5 -0.2761,0 -0.5,-0.2239 -0.5,-0.5 0,-0.2761 0.2239,-0.5 0.5,-0.5l0 -4.5 -10 0 0 4.5c0.2761,0 0.5,0.2239 0.5,0.5 0,0.2761 -0.2239,0.5 -0.5,0.5 -0.2761,0 -0.5,-0.2239 -0.5,-0.5l-2.5 0 -17 0 0 7 0 20 0 16 0 20 0 7 17 0 1 0 1.5 0c0,-0.2761 0.2239,-0.5 0.5,-0.5 0.2761,0 0.5,0.2239 0.5,0.5 0,0.2761 -0.2239,0.5 -0.5,0.5l0 4.5 10 0 0 -4.5c-0.2761,0 -0.5,-0.2239 -0.5,-0.5 0,-0.2761 0.2239,-0.5 0.5,-0.5 0.2761,0 0.5,0.2239 0.5,0.5l1.5 0 1.5 0 3 0 1.5 0 1.5 0c0,-0.2761 0.2239,-0.5 0.5,-0.5 0.2761,0 0.5,0.2239 0.5,0.5 0,0.2761 -0.2239,0.5 -0.5,0.5l0 4.5 10 0 0 -4.5c-0.2761,0 -0.5,-0.2239 -0.5,-0.5 0,-0.2761 0.2239,-0.5 0.5,-0.5 0.2761,0 0.5,0.2239 0.5,0.5l2.5 0 17 0 0 -7 0 -20 0 -16 0 -20z"/>
  </g>
  <g id="_73040024">
   <rect id="_126621136" fill="none" stroke="#1F1A17" stroke-width="0.0762" x="521.24" y="258.555" width="15" height="10"/>
   <path id="_73031832" fill="none" stroke="#1F1A17" stroke-width="0.0762" d="M521.24 268.555l15 0 0 -9.9992 -15 0 0 9.9992zm25.2602 20l9 0 0 -7.0006 0 -1 0 -1.5c-0.2761,0 -0.5,-0.2239 -0.5,-0.5 0,-0.2761 0.2239,-0.5 0.5,-0.5 0.2761,0 0.5,0.2239 0.5,0.5l4.5 0 0 -10 -4.5 0c0,0.2761 -0.2239,0.5 -0.5,0.5 -0.2761,0 -0.5,-0.2239 -0.5,-0.5 0,-0.2761 0.2239,-0.5 0.5,-0.5l0 -3 -3.9447 0 0 1.25 -2.5 0 0 -1.25 -4.5553 0 0 -3 4.5553 0 0 -1.25 2.5 0 0 1.25 3.9447 0 0 -2.4736 0 -0.5 0 -0.0264c-0.2716,0 -0.4927,-0.2166 -0.4998,-0.4865l0 -0.0006c0.0071,-0.2698 0.2282,-0.4865 0.4998,-0.4865 0.2761,0 0.5,0.2239 0.5,0.5l4.5 0 0 -0.0264 0 -9.9736 0 -0.0264 -4.5 0c0,0.2761 -0.2239,0.5 -0.5,0.5 -0.2716,0 -0.4927,-0.2166 -0.4998,-0.4865l0 -0.0006c0.0071,-0.2698 0.2282,-0.4865 0.4998,-0.4865l0 -0.0264 0 -1.4732 0 -1.5004 -3.9447 0 0 1.25 -2.5 0 0 -1.25 -4.5553 0 0 -3 4.5553 0 0 -1.25 2.5 0 0 1.25 3.9447 0 0 -3c-0.2761,0 -0.5,-0.2239 -0.5,-0.5 0,-0.2761 0.2239,-0.5 0.5,-0.5 0.2761,0 0.5,0.2239 0.5,0.5l4.5 0 0 -10 -4.5 0c0,0.2761 -0.2239,0.5 -0.5,0.5 -0.2761,0 -0.5,-0.2239 -0.5,-0.5 0,-0.2761 0.2239,-0.5 0.5,-0.5l0 -2.5 0 -7.0258 -9 0 -1 0 -1.5 0c0,0.2761 -0.2239,0.5 -0.5,0.5 -0.2761,0 -0.5,-0.2239 -0.5,-0.5 0,-0.2761 0.2239,-0.5 0.5,-0.5l0 -4.5 -10 0 0 4.5c0.2761,0 0.5,0.2239 0.5,0.5 0,0.2761 -0.2239,0.5 -0.5,0.5 -0.2761,0 -0.5,-0.2239 -0.5,-0.5l-3 0 0 3.9447 1.25 0 0 2.5 -1.25 0 0 4.5553 -3 0 0 -4.5553 -1.25 0 0 -2.5 1.25 0 0 -3.9447 -3 0c0,0.2761 -0.2239,0.5 -0.5,0.5 -0.2761,0 -0.5,-0.2239 -0.5,-0.5 0,-0.2761 0.2239,-0.5 0.5,-0.5l0 -4.5 -10 0 0 4.5c0.2761,0 0.5,0.2239 0.5,0.5 0,0.2761 -0.2239,0.5 -0.5,0.5 -0.2761,0 -0.5,-0.2239 -0.5,-0.5l-2.5 0 -9 0 0 7.0266 0 1 0 1.5c0.2761,0 0.5,0.2239 0.5,0.5 0,0.2761 -0.2239,0.5 -0.5,0.5 -0.2761,0 -0.5,-0.2239 -0.5,-0.5l-4.5 0 0 10 4.5 0c0,-0.2761 0.2239,-0.5 0.5,-0.5 0.2761,0 0.5,0.2239 0.5,0.5 0,0.2761 -0.2239,0.5 -0.5,0.5l0 3 3.9447 0 0 -1.25 2.5 0 0 1.25 4.5553 0 0 3 -4.5553 0 0 1.25 -2.5 0 0 -1.25 -3.9447 0 0 2.4736 0 0.5 0 0.0264c0.2716,0 0.4927,0.2166 0.4998,0.4865l0 0.0006c-0.0071,0.2698 -0.2282,0.4865 -0.4998,0.4865 -0.2761,0 -0.5,-0.2239 -0.5,-0.5l-4.5 0 0 0.0264 0 9.9736 0 0.0264 4.5 0c0,-0.2761 0.2239,-0.5 0.5,-0.5 0.2716,0 0.4927,0.2166 0.4998,0.4865l0 0.0006c-0.0071,0.2698 -0.2282,0.4865 -0.4998,0.4865l0 0.0264 0 1.4732 0 1.5004 3.9447 0 0 -1.25 2.5 0 0 1.25 4.5553 0 0 3 -4.5553 0 0 1.25 -2.5 0 0 -1.25 -3.9447 0 0 3c0.2761,0 0.5,0.2239 0.5,0.5 0,0.2761 -0.2239,0.5 -0.5,0.5 -0.2761,0 -0.5,-0.2239 -0.5,-0.5l-4.5 0 0 10 4.5 0c0,-0.2761 0.2239,-0.5 0.5,-0.5 0.2761,0 0.5,0.2239 0.5,0.5 0,0.2761 -0.2239,0.5 -0.5,0.5l0 2.5 0 6.9998 9 0 1 0 1.5 0c0,-0.2761 0.2239,-0.5 0.5,-0.5 0.2761,0 0.5,0.2239 0.5,0.5 0,0.2761 -0.2239,0.5 -0.5,0.5l0 4.5 10 0 0 -4.5c-0.2761,0 -0.5,-0.2239 -0.5,-0.5 0,-0.2761 0.2239,-0.5 0.5,-0.5 0.2761,0 0.5,0.2239 0.5,0.5l1.5 0 1.5 0 3 0 1.5 0 1.5 0c0,-0.2761 0.2239,-0.5 0.5,-0.5 0.2761,0 0.5,0.2239 0.5,0.5 0,0.2761 -0.2239,0.5 -0.5,0.5l0 4.5 10 0 0 -4.5c-0.2761,0 -0.5,-0.2239 -0.5,-0.5 0,-0.2761 0.2239,-0.5 0.5,-0.5 0.2761,0 0.5,0.2239 0.5,0.5l2.5 0z"/>
  </g>
  <ellipse fill="none" stroke="#1F1A17" stroke-width="0.0762" cx="499" cy="55" rx="11" ry="10.9999"/>
  <circle fill="none" stroke="#1F1A17" stroke-width="0.0762" cx="499" cy="25.5" r="1.5"/>
  <path fill="none" stroke="#1F1A17" stroke-width="0.0762" d="M484 28.5c-0.2761,0 -0.5,-0.2239 -0.5,-0.5 0,-0.2761 0.2239,-0.5 0.5,-0.5l0 -4c-0.2761,0 -0.5,-0.2239 -0.5,-0.5 0,-0.2761 0.2239,-0.5 0.5,-0.5 0.2761,0 0.5,0.2239 0.5,0.5l9 0c0,-0.2761 0.2239,-0.5 0.5,-0.5 0.2761,0 0.5,0.2239 0.5,0.5 0,0.2761 -0.2239,0.5 -0.5,0.5l0 4c0.2761,0 0.5,0.2239 0.5,0.5 0,0.2761 -0.2239,0.5 -0.5,0.5 -0.2761,0 -0.5,-0.2239 -0.5,-0.5l-9 0c0,0.2761 -0.2239,0.5 -0.5,0.5z"/>
  <path fill="none" stroke="#1F1A17" stroke-width="0.0762" d="M504 28.5c-0.2761,0 -0.5,-0.2239 -0.5,-0.5 0,-0.2761 0.2239,-0.5 0.5,-0.5l0 -4c-0.2761,0 -0.5,-0.2239 -0.5,-0.5 0,-0.2761 0.2239,-0.5 0.5,-0.5 0.2761,0 0.5,0.2239 0.5,0.5l9 0c0,-0.2761 0.2239,-0.5 0.5,-0.5 0.2761,0 0.5,0.2239 0.5,0.5 0,0.2761 -0.2239,0.5 -0.5,0.5l0 4c0.2761,0 0.5,0.2239 0.5,0.5 0,0.2761 -0.2239,0.5 -0.5,0.5 -0.2761,0 -0.5,-0.2239 -0.5,-0.5l-9 0c0,0.2761 -0.2239,0.5 -0.5,0.5z"/>
  <circle fill="none" stroke="#1F1A17" stroke-width="0.0762" transform="matrix(-7.94536E-014 1 -1 -7.94536E-014 528.5 55)" r="1.5"/>
  <path fill="none" stroke="#1F1A17" stroke-width="0.0762" d="M525.5 40c0,-0.2761 0.2239,-0.5 0.5,-0.5 0.2761,0 0.5,0.2239 0.5,0.5l4 0c0,-0.2761 0.2239,-0.5 0.5,-0.5 0.2761,0 0.5,0.2239 0.5,0.5 0,0.2761 -0.2239,0.5 -0.5,0.5l0 9c0.2761,0 0.5,0.2239 0.5,0.5 0,0.2761 -0.2239,0.5 -0.5,0.5 -0.2761,0 -0.5,-0.2239 -0.5,-0.5l-4 0c0,0.2761 -0.2239,0.5 -0.5,0.5 -0.2761,0 -0.5,-0.2239 -0.5,-0.5 0,-0.2761 0.2239,-0.5 0.5,-0.5l0 -9c-0.2761,0 -0.5,-0.2239 -0.5,-0.5z"/>
  <path fill="none" stroke="#1F1A17" stroke-width="0.0762" d="M525.5 60c0,-0.2761 0.2239,-0.5 0.5,-0.5 0.2761,0 0.5,0.2239 0.5,0.5l4 0c0,-0.2761 0.2239,-0.5 0.5,-0.5 0.2761,0 0.5,0.2239 0.5,0.5 0,0.2761 -0.2239,0.5 -0.5,0.5l0 9c0.2761,0 0.5,0.2239 0.5,0.5 0,0.2761 -0.2239,0.5 -0.5,0.5 -0.2761,0 -0.5,-0.2239 -0.5,-0.5l-4 0c0,0.2761 -0.2239,0.5 -0.5,0.5 -0.2761,0 -0.5,-0.2239 -0.5,-0.5 0,-0.2761 0.2239,-0.5 0.5,-0.5l0 -9c-0.2761,0 -0.5,-0.2239 -0.5,-0.5z"/>
  <circle fill="none" stroke="#1F1A17" stroke-width="0.0762" cx="499" cy="84.5" r="1.5"/>
  <path fill="none" stroke="#1F1A17" stroke-width="0.0762" d="M484 87.5c-0.2761,0 -0.5,-0.2239 -0.5,-0.5 0,-0.2761 0.2239,-0.5 0.5,-0.5l0 -4c-0.2761,0 -0.5,-0.2239 -0.5,-0.5 0,-0.2761 0.2239,-0.5 0.5,-0.5 0.2761,0 0.5,0.2239 0.5,0.5l9 0c0,-0.2761 0.2239,-0.5 0.5,-0.5 0.2761,0 0.5,0.2239 0.5,0.5 0,0.2761 -0.2239,0.5 -0.5,0.5l0 4c0.2761,0 0.5,0.2239 0.5,0.5 0,0.2761 -0.2239,0.5 -0.5,0.5 -0.2761,0 -0.5,-0.2239 -0.5,-0.5l-9 0c0,0.2761 -0.2239,0.5 -0.5,0.5z"/>
  <path fill="none" stroke="#1F1A17" stroke-width="0.0762" d="M504 87.5c-0.2761,0 -0.5,-0.2239 -0.5,-0.5 0,-0.2761 0.2239,-0.5 0.5,-0.5l0 -4c-0.2761,0 -0.5,-0.2239 -0.5,-0.5 0,-0.2761 0.2239,-0.5 0.5,-0.5 0.2761,0 0.5,0.2239 0.5,0.5l9 0c0,-0.2761 0.2239,-0.5 0.5,-0.5 0.2761,0 0.5,0.2239 0.5,0.5 0,0.2761 -0.2239,0.5 -0.5,0.5l0 4c0.2761,0 0.5,0.2239 0.5,0.5 0,0.2761 -0.2239,0.5 -0.5,0.5 -0.2761,0 -0.5,-0.2239 -0.5,-0.5l-9 0c0,0.2761 -0.2239,0.5 -0.5,0.5z"/>
  <circle fill="none" stroke="#1F1A17" stroke-width="0.0762" transform="matrix(1.32423E-013 -1 1 1.32423E-013 469.5 55)" r="1.5"/>
  <path fill="none" stroke="#1F1A17" stroke-width="0.0762" d="M472.5 70c0,0.2761 -0.2239,0.5 -0.5,0.5 -0.2761,0 -0.5,-0.2239 -0.5,-0.5l-4 0c0,0.2761 -0.2239,0.5 -0.5,0.5 -0.2761,0 -0.5,-0.2239 -0.5,-0.5 0,-0.2761 0.2239,-0.5 0.5,-0.5l0 -9c-0.2761,0 -0.5,-0.2239 -0.5,-0.5 0,-0.2761 0.2239,-0.5 0.5,-0.5 0.2761,0 0.5,0.2239 0.5,0.5l4 0c0,-0.2761 0.2239,-0.5 0.5,-0.5 0.2761,0 0.5,0.2239 0.5,0.5 0,0.2761 -0.2239,0.5 -0.5,0.5l0 9c0.2761,0 0.5,0.2239 0.5,0.5z"/>
  <path fill="none" stroke="#1F1A17" stroke-width="0.0762" d="M472.5 50c0,0.2761 -0.2239,0.5 -0.5,0.5 -0.2761,0 -0.5,-0.2239 -0.5,-0.5l-4 0c0,0.2761 -0.2239,0.5 -0.5,0.5 -0.2761,0 -0.5,-0.2239 -0.5,-0.5 0,-0.2761 0.2239,-0.5 0.5,-0.5l0 -9c-0.2761,0 -0.5,-0.2239 -0.5,-0.5 0,-0.2761 0.2239,-0.5 0.5,-0.5 0.2761,0 0.5,0.2239 0.5,0.5l4 0c0,-0.2761 0.2239,-0.5 0.5,-0.5 0.2761,0 0.5,0.2239 0.5,0.5 0,0.2761 -0.2239,0.5 -0.5,0.5l0 9c0.2761,0 0.5,0.2239 0.5,0.5z"/>
  <circle fill="none" stroke="#1F1A17" stroke-width="0.0762" cx="483.443" cy="39.4438" r="1.5"/>
  <circle fill="none" stroke="#1F1A17" stroke-width="0.0762" cx="514.556" cy="39.4437" r="1.5"/>
  <circle fill="none" stroke="#1F1A17" stroke-width="0.0762" cx="483.443" cy="70.5564" r="1.5"/>
  <circle fill="none" stroke="#1F1A17" stroke-width="0.0762" cx="514.556" cy="70.5564" r="1.5"/>
  <rect fill="none" stroke="#1F1A17" stroke-width="0.0762" x="464" y="20" width="70" height="70"/>
  <path fill="#1F1A17" fill-rule="nonzero" d="M56.167 173.033l1.1641 -3.0303 0.4318 0 1.2404 3.0303 -0.4572 0 -0.3535 -0.9179 -1.2672 0 -0.3323 0.9179 -0.4261 0zm0.8741 -1.2446l1.028 0 -0.3168 -0.8389c-0.0959,-0.2547 -0.1679,-0.4642 -0.2145,-0.6286 -0.0388,0.1947 -0.0931,0.3873 -0.1637,0.5792l-0.333 0.8883z"/>
  <path fill="#1F1A17" fill-rule="nonzero" d="M267.985 9.0105l3.0303 0 0 1.1374c0,0.2314 -0.031,0.417 -0.0917,0.5567 -0.0614,0.1404 -0.1559,0.2497 -0.2836,0.3287 -0.127,0.0791 -0.2604,0.1193 -0.4001,0.1193 -0.1291,0 -0.2511,-0.0353 -0.3654,-0.1058 -0.1143,-0.0699 -0.2068,-0.1764 -0.2773,-0.3182 -0.0536,0.1834 -0.1454,0.3238 -0.2745,0.4226 -0.1298,0.0988 -0.2829,0.1481 -0.4593,0.1481 -0.1418,0 -0.2737,-0.0303 -0.3958,-0.0903 -0.1221,-0.0599 -0.2159,-0.134 -0.2822,-0.2222 -0.0663,-0.0882 -0.1157,-0.199 -0.1496,-0.3316 -0.0339,-0.1327 -0.0508,-0.2957 -0.0508,-0.489l0 -1.1557zm1.7568 0.4015l0 0.6555c0,0.177 0.012,0.3047 0.0353,0.3824 0.0303,0.1016 0.0804,0.1785 0.151,0.23 0.0705,0.0515 0.1587,0.0776 0.2646,0.0776 0.1002,0 0.1891,-0.024 0.2653,-0.072 0.0769,-0.0487 0.1291,-0.1178 0.1573,-0.2067 0.0282,-0.0896 0.0423,-0.2434 0.0423,-0.4614l0 -0.6054 -0.9158 0zm-1.3991 0l0 0.7542c0,0.1298 0.005,0.2209 0.0141,0.2731 0.017,0.0924 0.0445,0.1693 0.0833,0.2314 0.0381,0.0621 0.0945,0.1129 0.1679,0.1531 0.0741,0.0395 0.1587,0.06 0.2554,0.06 0.1129,0 0.211,-0.029 0.2949,-0.0868 0.0833,-0.0579 0.1418,-0.1383 0.1757,-0.2413 0.0332,-0.1023 0.0501,-0.2505 0.0501,-0.4431l0 -0.7006 -1.0414 0z"/>
  <path fill="#1F1A17" fill-rule="nonzero" d="M57.0104 10.5151l0 -3.0303 1.1374 0c0.2314,0 0.417,0.031 0.5567,0.0917 0.1404,0.0614 0.2497,0.1559 0.3287,0.2836 0.0791,0.127 0.1193,0.2604 0.1193,0.4001 0,0.1291 -0.0353,0.2511 -0.1058,0.3654 -0.0699,0.1143 -0.1764,0.2068 -0.3182,0.2773 0.1834,0.0536 0.3238,0.1454 0.4226,0.2745 0.0988,0.1298 0.1481,0.2829 0.1481,0.4593 0,0.1418 -0.0303,0.2737 -0.0903,0.3958 -0.0599,0.1221 -0.134,0.2159 -0.2222,0.2822 -0.0882,0.0663 -0.199,0.1157 -0.3316,0.1496 -0.1327,0.0339 -0.2957,0.0508 -0.489,0.0508l-1.1557 0zm0.4015 -1.7568l0.6555 0c0.177,0 0.3047,-0.012 0.3824,-0.0353 0.1016,-0.0303 0.1785,-0.0804 0.23,-0.151 0.0515,-0.0705 0.0776,-0.1587 0.0776,-0.2646 0,-0.1002 -0.024,-0.1891 -0.072,-0.2653 -0.0487,-0.0769 -0.1178,-0.1291 -0.2067,-0.1573 -0.0896,-0.0282 -0.2434,-0.0423 -0.4614,-0.0423l-0.6054 0 0 0.9158zm0 1.3991l0.7542 0c0.1298,0 0.2209,-0.005 0.2731,-0.0141 0.0924,-0.017 0.1693,-0.0445 0.2314,-0.0833 0.0621,-0.0381 0.1129,-0.0945 0.1531,-0.1679 0.0395,-0.0741 0.06,-0.1587 0.06,-0.2554 0,-0.1129 -0.029,-0.211 -0.0868,-0.2949 -0.0579,-0.0833 -0.1383,-0.1418 -0.2413,-0.1757 -0.1023,-0.0332 -0.2505,-0.0501 -0.4431,-0.0501l-0.7006 0 0 1.0414z"/>
  <path fill="#1F1A17" fill-rule="nonzero" d="M405.9 8.0284l3.0303 1.1641 0 0.4318 -3.0303 1.2404 0 -0.4572 0.9179 -0.3535 0 -1.2672 -0.9179 -0.3323 0 -0.4261zm1.2446 0.8741l0 1.028 0.8389 -0.3168c0.2547,-0.0959 0.4642,-0.1679 0.6286,-0.2145 -0.1947,-0.0388 -0.3873,-0.0931 -0.5792,-0.1637l-0.8883 -0.333z"/>
  <path fill="#1F1A17" fill-rule="nonzero" d="M532.562 87.8395l0.4014 0.1016c-0.0839,0.3288 -0.2356,0.58 -0.4536,0.7536 -0.2188,0.1728 -0.4855,0.2589 -0.8015,0.2589 -0.3267,0 -0.592,-0.0663 -0.7966,-0.199 -0.2046,-0.1333 -0.3605,-0.3259 -0.4671,-0.5778 -0.1065,-0.2526 -0.1601,-0.5235 -0.1601,-0.8128 0,-0.3154 0.0599,-0.5905 0.1806,-0.8255 0.1206,-0.2349 0.2921,-0.4134 0.515,-0.5355 0.2223,-0.1221 0.4671,-0.1827 0.7345,-0.1827 0.3034,0 0.5581,0.0769 0.7648,0.2314 0.2068,0.1545 0.3507,0.3711 0.4318,0.6512l-0.3944 0.0931c-0.0705,-0.2208 -0.1721,-0.381 -0.3062,-0.4819 -0.1333,-0.1009 -0.3013,-0.1509 -0.5045,-0.1509 -0.2328,0 -0.4268,0.0557 -0.5834,0.1672 -0.1567,0.1122 -0.2667,0.2617 -0.3295,0.4501 -0.0635,0.1877 -0.0953,0.3817 -0.0953,0.5814 0,0.2582 0.0374,0.4826 0.1122,0.6752 0.0755,0.1919 0.1919,0.3358 0.3507,0.4311 0.1587,0.0952 0.3302,0.1425 0.515,0.1425 0.2244,0 0.4142,-0.0649 0.5701,-0.194 0.1559,-0.1298 0.261,-0.3225 0.3161,-0.5772z"/>
  <path fill="#1F1A17" fill-rule="nonzero" d="M504.562 140.339l0.4014 0.1016c-0.0839,0.3288 -0.2356,0.58 -0.4536,0.7536 -0.2188,0.1728 -0.4855,0.2589 -0.8015,0.2589 -0.3267,0 -0.592,-0.0663 -0.7966,-0.199 -0.2046,-0.1333 -0.3605,-0.3259 -0.4671,-0.5778 -0.1065,-0.2526 -0.1601,-0.5235 -0.1601,-0.8128 0,-0.3154 0.0599,-0.5905 0.1806,-0.8255 0.1206,-0.2349 0.2921,-0.4134 0.515,-0.5355 0.2223,-0.1221 0.4671,-0.1827 0.7345,-0.1827 0.3034,0 0.5581,0.0769 0.7648,0.2314 0.2068,0.1545 0.3507,0.3711 0.4318,0.6512l-0.3944 0.0931c-0.0705,-0.2208 -0.1721,-0.381 -0.3062,-0.4819 -0.1333,-0.1009 -0.3013,-0.1509 -0.5045,-0.1509 -0.2328,0 -0.4268,0.0557 -0.5834,0.1672 -0.1567,0.1122 -0.2667,0.2617 -0.3295,0.4501 -0.0635,0.1877 -0.0953,0.3817 -0.0953,0.5814 0,0.2582 0.0374,0.4826 0.1122,0.6752 0.0755,0.1919 0.1919,0.3358 0.3507,0.4311 0.1587,0.0952 0.3302,0.1425 0.515,0.1425 0.2244,0 0.4142,-0.0649 0.5701,-0.194 0.1559,-0.1298 0.261,-0.3225 0.3161,-0.5772z"/>
  <path fill="#1F1A17" fill-rule="nonzero" d="M467.362 23.0395l0.4014 0.1016c-0.0839,0.3288 -0.2356,0.58 -0.4536,0.7536 -0.2188,0.1728 -0.4855,0.2589 -0.8015,0.2589 -0.3267,0 -0.592,-0.0663 -0.7966,-0.199 -0.2046,-0.1333 -0.3605,-0.3259 -0.4671,-0.5778 -0.1065,-0.2526 -0.1601,-0.5235 -0.1601,-0.8128 0,-0.3154 0.0599,-0.5905 0.1806,-0.8255 0.1206,-0.2349 0.2921,-0.4134 0.515,-0.5355 0.2223,-0.1221 0.4671,-0.1827 0.7345,-0.1827 0.3034,0 0.5581,0.0769 0.7648,0.2314 0.2068,0.1545 0.3507,0.3711 0.4318,0.6512l-0.3944 0.0931c-0.0705,-0.2208 -0.1721,-0.381 -0.3062,-0.4819 -0.1333,-0.1009 -0.3013,-0.1509 -0.5045,-0.1509 -0.2328,0 -0.4268,0.0557 -0.5834,0.1672 -0.1567,0.1122 -0.2667,0.2617 -0.3295,0.4501 -0.0635,0.1877 -0.0953,0.3817 -0.0953,0.5814 0,0.2582 0.0374,0.4826 0.1122,0.6752 0.0755,0.1919 0.1919,0.3358 0.3507,0.4311 0.1587,0.0952 0.3302,0.1425 0.515,0.1425 0.2244,0 0.4142,-0.0649 0.5701,-0.194 0.1559,-0.1298 0.261,-0.3225 0.3161,-0.5772z"/>
  <path fill="#1F1A17" fill-rule="nonzero" d="M426.983 124.002l0 -3.0303 1.1374 0c0.2314,0 0.417,0.031 0.5567,0.0917 0.1404,0.0614 0.2497,0.1559 0.3287,0.2836 0.0791,0.127 0.1193,0.2604 0.1193,0.4001 0,0.1291 -0.0353,0.2511 -0.1058,0.3654 -0.0699,0.1143 -0.1764,0.2068 -0.3182,0.2773 0.1834,0.0536 0.3238,0.1454 0.4226,0.2745 0.0988,0.1298 0.1481,0.2829 0.1481,0.4593 0,0.1418 -0.0303,0.2737 -0.0903,0.3958 -0.0599,0.1221 -0.134,0.2159 -0.2222,0.2822 -0.0882,0.0663 -0.199,0.1157 -0.3316,0.1496 -0.1327,0.0339 -0.2957,0.0508 -0.489,0.0508l-1.1557 0zm0.4015 -1.7568l0.6555 0c0.177,0 0.3047,-0.012 0.3824,-0.0353 0.1016,-0.0303 0.1785,-0.0804 0.23,-0.151 0.0515,-0.0705 0.0776,-0.1587 0.0776,-0.2646 0,-0.1002 -0.024,-0.1891 -0.072,-0.2653 -0.0487,-0.0769 -0.1178,-0.1291 -0.2067,-0.1573 -0.0896,-0.0282 -0.2434,-0.0423 -0.4614,-0.0423l-0.6054 0 0 0.9158zm0 1.3991l0.7542 0c0.1298,0 0.2209,-0.005 0.2731,-0.0141 0.0924,-0.017 0.1693,-0.0445 0.2314,-0.0833 0.0621,-0.0381 0.1129,-0.0945 0.1531,-0.1679 0.0395,-0.0741 0.06,-0.1587 0.06,-0.2554 0,-0.1129 -0.029,-0.211 -0.0868,-0.2949 -0.0579,-0.0833 -0.1383,-0.1418 -0.2413,-0.1757 -0.1023,-0.0332 -0.2505,-0.0501 -0.4431,-0.0501l-0.7006 0 0 1.0414z"/>
  <path fill="#1F1A17" fill-rule="nonzero" d="M494.162 140.44l0.4014 0.1016c-0.0839,0.3288 -0.2356,0.58 -0.4536,0.7536 -0.2188,0.1728 -0.4855,0.2589 -0.8015,0.2589 -0.3267,0 -0.592,-0.0663 -0.7966,-0.199 -0.2046,-0.1333 -0.3605,-0.3259 -0.4671,-0.5778 -0.1065,-0.2526 -0.1601,-0.5235 -0.1601,-0.8128 0,-0.3154 0.0599,-0.5905 0.1806,-0.8255 0.1206,-0.2349 0.2921,-0.4134 0.515,-0.5355 0.2223,-0.1221 0.4671,-0.1827 0.7345,-0.1827 0.3034,0 0.5581,0.0769 0.7648,0.2314 0.2068,0.1545 0.3507,0.3711 0.4318,0.6512l-0.3944 0.0931c-0.0705,-0.2208 -0.1721,-0.381 -0.3062,-0.4819 -0.1333,-0.1009 -0.3013,-0.1509 -0.5045,-0.1509 -0.2328,0 -0.4268,0.0557 -0.5834,0.1672 -0.1567,0.1122 -0.2667,0.2617 -0.3295,0.4501 -0.0635,0.1877 -0.0953,0.3817 -0.0953,0.5814 0,0.2582 0.0374,0.4826 0.1122,0.6752 0.0755,0.1919 0.1919,0.3358 0.3507,0.4311 0.1587,0.0952 0.3302,0.1425 0.515,0.1425 0.2244,0 0.4142,-0.0649 0.5701,-0.194 0.1559,-0.1298 0.261,-0.3225 0.3161,-0.5772z"/>
  <path fill="#1F1A17" fill-rule="nonzero" d="M494.162 221.44l0.4014 0.1016c-0.0839,0.3288 -0.2356,0.58 -0.4536,0.7536 -0.2188,0.1728 -0.4855,0.2589 -0.8015,0.2589 -0.3267,0 -0.592,-0.0663 -0.7966,-0.199 -0.2046,-0.1333 -0.3605,-0.3259 -0.4671,-0.5778 -0.1065,-0.2526 -0.1601,-0.5235 -0.1601,-0.8128 0,-0.3154 0.0599,-0.5905 0.1806,-0.8255 0.1206,-0.2349 0.2921,-0.4134 0.515,-0.5355 0.2223,-0.1221 0.4671,-0.1827 0.7345,-0.1827 0.3034,0 0.5581,0.0769 0.7648,0.2314 0.2068,0.1545 0.3507,0.3711 0.4318,0.6512l-0.3944 0.0931c-0.0705,-0.2208 -0.1721,-0.381 -0.3062,-0.4819 -0.1333,-0.1009 -0.3013,-0.1509 -0.5045,-0.1509 -0.2328,0 -0.4268,0.0557 -0.5834,0.1672 -0.1567,0.1122 -0.2667,0.2617 -0.3295,0.4501 -0.0635,0.1877 -0.0953,0.3817 -0.0953,0.5814 0,0.2582 0.0374,0.4826 0.1122,0.6752 0.0755,0.1919 0.1919,0.3358 0.3507,0.4311 0.1587,0.0952 0.3302,0.1425 0.515,0.1425 0.2244,0 0.4142,-0.0649 0.5701,-0.194 0.1559,-0.1298 0.261,-0.3225 0.3161,-0.5772z"/>
  <path fill="#1F1A17" fill-rule="nonzero" d="M504.562 221.339l0.4014 0.1016c-0.0839,0.3288 -0.2356,0.58 -0.4536,0.7536 -0.2188,0.1728 -0.4855,0.2589 -0.8015,0.2589 -0.3267,0 -0.592,-0.0663 -0.7966,-0.199 -0.2046,-0.1333 -0.3605,-0.3259 -0.4671,-0.5778 -0.1065,-0.2526 -0.1601,-0.5235 -0.1601,-0.8128 0,-0.3154 0.0599,-0.5905 0.1806,-0.8255 0.1206,-0.2349 0.2921,-0.4134 0.515,-0.5355 0.2223,-0.1221 0.4671,-0.1827 0.7345,-0.1827 0.3034,0 0.5581,0.0769 0.7648,0.2314 0.2068,0.1545 0.3507,0.3711 0.4318,0.6512l-0.3944 0.0931c-0.0705,-0.2208 -0.1721,-0.381 -0.3062,-0.4819 -0.1333,-0.1009 -0.3013,-0.1509 -0.5045,-0.1509 -0.2328,0 -0.4268,0.0557 -0.5834,0.1672 -0.1567,0.1122 -0.2667,0.2617 -0.3295,0.4501 -0.0635,0.1877 -0.0953,0.3817 -0.0953,0.5814 0,0.2582 0.0374,0.4826 0.1122,0.6752 0.0755,0.1919 0.1919,0.3358 0.3507,0.4311 0.1587,0.0952 0.3302,0.1425 0.515,0.1425 0.2244,0 0.4142,-0.0649 0.5701,-0.194 0.1559,-0.1298 0.261,-0.3225 0.3161,-0.5772z"/>
  <g id="_74494240">
   <path id="_72135920" fill="none" stroke="#1F1A17" stroke-width="0.0762" d="M200.5 284c0.8283,0 1.5,0.6717 1.5,1.5 0,0.8283 -0.6717,1.5 -1.5,1.5 -0.8283,0 -1.5,-0.6717 -1.5,-1.5 0,-0.8283 0.6717,-1.5 1.5,-1.5z"/>
   <path id="_74817600" fill="none" stroke="#1F1A17" stroke-width="0.0762" d="M185.5 288.5c-0.2761,0 -0.5,-0.2239 -0.5,-0.5 0,-0.2761 0.2239,-0.5 0.5,-0.5l0 -4c-0.2761,0 -0.5,-0.2239 -0.5,-0.5 0,-0.2761 0.2239,-0.5 0.5,-0.5 0.2761,0 0.5,0.2239 0.5,0.5l9 0c0,-0.2761 0.2239,-0.5 0.5,-0.5 0.2761,0 0.5,0.2239 0.5,0.5 0,0.2761 -0.2239,0.5 -0.5,0.5l0 4c0.2761,0 0.5,0.2239 0.5,0.5 0,0.2761 -0.2239,0.5 -0.5,0.5 -0.2761,0 -0.5,-0.2239 -0.5,-0.5l-9 0c0,0.2761 -0.2239,0.5 -0.5,0.5z"/>
   <path id="_72092896" fill="none" stroke="#1F1A17" stroke-width="0.0762" d="M205.5 288.5c-0.2761,0 -0.5,-0.2239 -0.5,-0.5 0,-0.2761 0.2239,-0.5 0.5,-0.5l0 -4c-0.2761,0 -0.5,-0.2239 -0.5,-0.5 0,-0.2761 0.2239,-0.5 0.5,-0.5 0.2761,0 0.5,0.2239 0.5,0.5l9 0c0,-0.2761 0.2239,-0.5 0.5,-0.5 0.2761,0 0.5,0.2239 0.5,0.5 0,0.2761 -0.2239,0.5 -0.5,0.5l0 4c0.2761,0 0.5,0.2239 0.5,0.5 0,0.2761 -0.2239,0.5 -0.5,0.5 -0.2761,0 -0.5,-0.2239 -0.5,-0.5l-9 0c0,0.2761 -0.2239,0.5 -0.5,0.5z"/>
   <path id="_74057408" fill="none" stroke="#1F1A17" stroke-width="0.0762" d="M220.5 284c0.8283,0 1.5,0.6717 1.5,1.5 0,0.8283 -0.6717,1.5 -1.5,1.5 -0.8283,0 -1.5,-0.6717 -1.5,-1.5 0,-0.8283 0.6717,-1.5 1.5,-1.5z"/>
   <path id="_74420512" fill="none" stroke="#1F1A17" stroke-width="0.0762" d="M225.5 288.5c-0.2761,0 -0.5,-0.2239 -0.5,-0.5 0,-0.2761 0.2239,-0.5 0.5,-0.5l0 -4c-0.2761,0 -0.5,-0.2239 -0.5,-0.5 0,-0.2761 0.2239,-0.5 0.5,-0.5 0.2761,0 0.5,0.2239 0.5,0.5l9 0c0,-0.2761 0.2239,-0.5 0.5,-0.5 0.2761,0 0.5,0.2239 0.5,0.5 0,0.2761 -0.2239,0.5 -0.5,0.5l0 4c0.2761,0 0.5,0.2239 0.5,0.5 0,0.2761 -0.2239,0.5 -0.5,0.5 -0.2761,0 -0.5,-0.2239 -0.5,-0.5l-9 0c0,0.2761 -0.2239,0.5 -0.5,0.5z"/>
   <path id="_74654576" fill="none" stroke="#1F1A17" stroke-width="0.0762" d="M273 18l0 -11 -17 0 -2.5 0 0 3.9447 1.25 0 0 2.5 -1.25 0 0 4.5553 -3 0 0 -4.5553 -1.25 0 0 -2.5 1.25 0 0 -3.9447 -2.5 0 -9.5 0 -20 0 -16 0 -20 0 -34.5 0 0 11 0 6 0 1 0 1.5c0.2761,0 0.5,0.2239 0.5,0.5 0,0.2761 -0.2239,0.5 -0.5,0.5 -0.2761,0 -0.5,-0.2239 -0.5,-0.5l-4.5 0 0 10 4.5 0c0,-0.2761 0.2239,-0.5 0.5,-0.5 0.2761,0 0.5,0.2239 0.5,0.5 0,0.2761 -0.2239,0.5 -0.5,0.5l0 1.5 0 1.5 0 3 0 1.5 0 1.5c0.2761,0 0.5,0.2239 0.5,0.5 0,0.2761 -0.2239,0.5 -0.5,0.5 -0.2761,0 -0.5,-0.2239 -0.5,-0.5l-4.5 0 0 10 4.5 0c0,-0.2761 0.2239,-0.5 0.5,-0.5 0.2761,0 0.5,0.2239 0.5,0.5 0,0.2761 -0.2239,0.5 -0.5,0.5l0 2.5 0 71 0 1 0 1.5c0.2761,0 0.5,0.2239 0.5,0.5 0,0.2761 -0.2239,0.5 -0.5,0.5 -0.2761,0 -0.5,-0.2239 -0.5,-0.5l-4.5 0 0 10 4.5 0c0,-0.2761 0.2239,-0.5 0.5,-0.5 0.2761,0 0.5,0.2239 0.5,0.5 0,0.2761 -0.2239,0.5 -0.5,0.5l0 1.5 0 1.5 0 3 0 1.5 0 1.5c0.2761,0 0.5,0.2239 0.5,0.5 0,0.2761 -0.2239,0.5 -0.5,0.5 -0.2761,0 -0.5,-0.2239 -0.5,-0.5l-4.5 0 0 10 4.5 0c0,-0.2761 0.2239,-0.5 0.5,-0.5 0.2761,0 0.5,0.2239 0.5,0.5 0,0.2761 -0.2239,0.5 -0.5,0.5l0 2.5 0 71 0 1 0 1.5c0.2761,0 0.5,0.2239 0.5,0.5 0,0.2761 -0.2239,0.5 -0.5,0.5 -0.2761,0 -0.5,-0.2239 -0.5,-0.5l-4.5 0 0 10 4.5 0c0,-0.2761 0.2239,-0.5 0.5,-0.5 0.2761,0 0.5,0.2239 0.5,0.5 0,0.2761 -0.2239,0.5 -0.5,0.5l0 1.5 0 1.5 0 3 0 1.5 0 1.5c0.2761,0 0.5,0.2239 0.5,0.5 0,0.2761 -0.2239,0.5 -0.5,0.5 -0.2761,0 -0.5,-0.2239 -0.5,-0.5l-4.5 0 0 10 4.5 0c0,-0.2761 0.2239,-0.5 0.5,-0.5 0.2761,0 0.5,0.2239 0.5,0.5 0,0.2761 -0.2239,0.5 -0.5,0.5l0 2.5 0 6 0 11 34.5 0 20 0 16 0 20 0 9.5 0 2.5 0 0 -3.9447 -1.25 0 0 -2.5 1.25 0 0 -4.5553 3 0 0 4.5553 1.25 0 0 2.5 -1.25 0 0 3.9447 2.5 0 17 0 0 -11 0 -6 0 -1 0 -1.5c-0.2761,0 -0.5,-0.2239 -0.5,-0.5 0,-0.2761 0.2239,-0.5 0.5,-0.5 0.2761,0 0.5,0.2239 0.5,0.5l4.5 0 0 -10 -4.5 0c0,0.2761 -0.2239,0.5 -0.5,0.5 -0.2761,0 -0.5,-0.2239 -0.5,-0.5 0,-0.2761 0.2239,-0.5 0.5,-0.5l0 -3 -3.9447 0 0 1.25 -2.5 0 0 -1.25 -4.5553 0 0 -3 4.5553 0 0 -1.25 2.5 0 0 1.25 3.9447 0 0 -3c-0.2761,0 -0.5,-0.2239 -0.5,-0.5 0,-0.2761 0.2239,-0.5 0.5,-0.5 0.2761,0 0.5,0.2239 0.5,0.5l4.5 0 0 -10 -4.5 0c0,0.2761 -0.2239,0.5 -0.5,0.5 -0.2761,0 -0.5,-0.2239 -0.5,-0.5 0,-0.2761 0.2239,-0.5 0.5,-0.5l0 -2.5 0 -71 0 -1 0 -1.5c-0.2761,0 -0.5,-0.2239 -0.5,-0.5 0,-0.2761 0.2239,-0.5 0.5,-0.5 0.2761,0 0.5,0.2239 0.5,0.5l4.5 0 0 -10 -4.5 0c0,0.2761 -0.2239,0.5 -0.5,0.5 -0.2761,0 -0.5,-0.2239 -0.5,-0.5 0,-0.2761 0.2239,-0.5 0.5,-0.5l0 -3 -3.9447 0 0 1.25 -2.5 0 0 -1.25 -4.5553 0 0 -3 4.5553 0 0 -1.25 2.5 0 0 1.25 3.9447 0 0 -3c-0.2761,0 -0.5,-0.2239 -0.5,-0.5 0,-0.2761 0.2239,-0.5 0.5,-0.5 0.2761,0 0.5,0.2239 0.5,0.5l4.5 0 0 -10 -4.5 0c0,0.2761 -0.2239,0.5 -0.5,0.5 -0.2761,0 -0.5,-0.2239 -0.5,-0.5 0,-0.2761 0.2239,-0.5 0.5,-0.5l0 -2.5 0 -71 0 -1 0 -1.5c-0.2761,0 -0.5,-0.2239 -0.5,-0.5 0,-0.2761 0.2239,-0.5 0.5,-0.5 0.2761,0 0.5,0.2239 0.5,0.5l4.5 0 0 -10 -4.5 0c0,0.2761 -0.2239,0.5 -0.5,0.5 -0.2761,0 -0.5,-0.2239 -0.5,-0.5 0,-0.2761 0.2239,-0.5 0.5,-0.5l0 -3 -3.9447 0 0 1.25 -2.5 0 0 -1.25 -4.5553 0 0 -3 4.5553 0 0 -1.25 2.5 0 0 1.25 3.9447 0 0 -3c-0.2761,0 -0.5,-0.2239 -0.5,-0.5 0,-0.2761 0.2239,-0.5 0.5,-0.5 0.2761,0 0.5,0.2239 0.5,0.5l4.5 0 0 -10 -4.5 0c0,0.2761 -0.2239,0.5 -0.5,0.5 -0.2761,0 -0.5,-0.2239 -0.5,-0.5 0,-0.2761 0.2239,-0.5 0.5,-0.5l0 -2.5 0 -6zm-93 225l10 0 0 19 -10 0 0 -19zm0 -207l10 0 0 19 -10 0 0 -19z"/>
   <path id="_79334000" fill="none" stroke="#1F1A17" stroke-width="0.0762" d="M200.5 11c0.8283,0 1.5,0.6717 1.5,1.5 0,0.8283 -0.6717,1.5 -1.5,1.5 -0.8283,0 -1.5,-0.6717 -1.5,-1.5 0,-0.8283 0.6717,-1.5 1.5,-1.5z"/>
   <path id="_126832352" fill="none" stroke="#1F1A17" stroke-width="0.0762" d="M185.5 15.5c-0.2761,0 -0.5,-0.2239 -0.5,-0.5 0,-0.2761 0.2239,-0.5 0.5,-0.5l0 -4c-0.2761,0 -0.5,-0.2239 -0.5,-0.5 0,-0.2761 0.2239,-0.5 0.5,-0.5 0.2761,0 0.5,0.2239 0.5,0.5l9 0c0,-0.2761 0.2239,-0.5 0.5,-0.5 0.2761,0 0.5,0.2239 0.5,0.5 0,0.2761 -0.2239,0.5 -0.5,0.5l0 4c0.2761,0 0.5,0.2239 0.5,0.5 0,0.2761 -0.2239,0.5 -0.5,0.5 -0.2761,0 -0.5,-0.2239 -0.5,-0.5l-9 0c0,0.2761 -0.2239,0.5 -0.5,0.5z"/>
   <path id="_127174904" fill="none" stroke="#1F1A17" stroke-width="0.0762" d="M205.5 15.5c-0.2761,0 -0.5,-0.2239 -0.5,-0.5 0,-0.2761 0.2239,-0.5 0.5,-0.5l0 -4c-0.2761,0 -0.5,-0.2239 -0.5,-0.5 0,-0.2761 0.2239,-0.5 0.5,-0.5 0.2761,0 0.5,0.2239 0.5,0.5l9 0c0,-0.2761 0.2239,-0.5 0.5,-0.5 0.2761,0 0.5,0.2239 0.5,0.5 0,0.2761 -0.2239,0.5 -0.5,0.5l0 4c0.2761,0 0.5,0.2239 0.5,0.5 0,0.2761 -0.2239,0.5 -0.5,0.5 -0.2761,0 -0.5,-0.2239 -0.5,-0.5l-9 0c0,0.2761 -0.2239,0.5 -0.5,0.5z"/>
   <path id="_72319128" fill="none" stroke="#1F1A17" stroke-width="0.0762" d="M220.5 11c0.8283,0 1.5,0.6717 1.5,1.5 0,0.8283 -0.6717,1.5 -1.5,1.5 -0.8283,0 -1.5,-0.6717 -1.5,-1.5 0,-0.8283 0.6717,-1.5 1.5,-1.5z"/>
   <path id="_73777304" fill="none" stroke="#1F1A17" stroke-width="0.0762" d="M225.5 15.5c-0.2761,0 -0.5,-0.2239 -0.5,-0.5 0,-0.2761 0.2239,-0.5 0.5,-0.5l0 -4c-0.2761,0 -0.5,-0.2239 -0.5,-0.5 0,-0.2761 0.2239,-0.5 0.5,-0.5 0.2761,0 0.5,0.2239 0.5,0.5l9 0c0,-0.2761 0.2239,-0.5 0.5,-0.5 0.2761,0 0.5,0.2239 0.5,0.5 0,0.2761 -0.2239,0.5 -0.5,0.5l0 4c0.2761,0 0.5,0.2239 0.5,0.5 0,0.2761 -0.2239,0.5 -0.5,0.5 -0.2761,0 -0.5,-0.2239 -0.5,-0.5l-9 0c0,0.2761 -0.2239,0.5 -0.5,0.5z"/>
  </g>
  <ellipse fill="none" stroke="#1F1A17" stroke-width="0.0762" transform="matrix(-0.808338 -0.80837 1.69016 -1.69023 88.4438 57.5566)" rx="1.3121" ry="0.6275"/>
  <ellipse fill="none" stroke="#1F1A17" stroke-width="0.0762" cx="119.556" cy="26.4439" rx="1.49994" ry="1.49988"/>
  <ellipse fill="none" stroke="#1F1A17" stroke-width="0.0762" transform="matrix(3.01436E-014 1.14316 -2.39025 6.3082E-014 88.4438 26.4439)" rx="1.3121" ry="0.6275"/>
  <ellipse fill="none" stroke="#1F1A17" stroke-width="0.0762" transform="matrix(-0.80837 -0.80837 1.69023 -1.69023 119.556 57.5566)" rx="1.3121" ry="0.6275"/>
  <ellipse fill="none" stroke="#1F1A17" stroke-width="0.0762" transform="matrix(-1.00743E-013 -1.26795 1.1337 -9.00765E-014 104 42.0002)" rx="8.6754" ry="9.7027"/>
  <circle fill="none" stroke="#1F1A17" stroke-width="0.0762" transform="matrix(-7.94536E-014 -1 1 -7.94536E-014 74.5 42)" r="1.5"/>
  <path fill="none" stroke="#1F1A17" stroke-width="0.0762" d="M77.5 57c0,0.2761 -0.2239,0.5 -0.5,0.5 -0.2761,0 -0.5,-0.2239 -0.5,-0.5l-4 0c0,0.2761 -0.2239,0.5 -0.5,0.5 -0.2761,0 -0.5,-0.2239 -0.5,-0.5 0,-0.2761 0.2239,-0.5 0.5,-0.5l0 -9c-0.2761,0 -0.5,-0.2239 -0.5,-0.5 0,-0.2761 0.2239,-0.5 0.5,-0.5 0.2761,0 0.5,0.2239 0.5,0.5l4 0c0,-0.2761 0.2239,-0.5 0.5,-0.5 0.2761,0 0.5,0.2239 0.5,0.5 0,0.2761 -0.2239,0.5 -0.5,0.5l0 9c0.2761,0 0.5,0.2239 0.5,0.5z"/>
  <path fill="none" stroke="#1F1A17" stroke-width="0.0762" d="M77.5 37c0,0.2761 -0.2239,0.5 -0.5,0.5 -0.2761,0 -0.5,-0.2239 -0.5,-0.5l-4 0c0,0.2761 -0.2239,0.5 -0.5,0.5 -0.2761,0 -0.5,-0.2239 -0.5,-0.5 0,-0.2761 0.2239,-0.5 0.5,-0.5l0 -9c-0.2761,0 -0.5,-0.2239 -0.5,-0.5 0,-0.2761 0.2239,-0.5 0.5,-0.5 0.2761,0 0.5,0.2239 0.5,0.5l4 0c0,-0.2761 0.2239,-0.5 0.5,-0.5 0.2761,0 0.5,0.2239 0.5,0.5 0,0.2761 -0.2239,0.5 -0.5,0.5l0 9c0.2761,0 0.5,0.2239 0.5,0.5z"/>
  <circle fill="none" stroke="#1F1A17" stroke-width="0.0762" cx="104" cy="12.5" r="1.5"/>
  <path fill="none" stroke="#1F1A17" stroke-width="0.0762" d="M89 15.5c-0.2761,0 -0.5,-0.2239 -0.5,-0.5 0,-0.2761 0.2239,-0.5 0.5,-0.5l0 -4c-0.2761,0 -0.5,-0.2239 -0.5,-0.5 0,-0.2761 0.2239,-0.5 0.5,-0.5 0.2761,0 0.5,0.2239 0.5,0.5l9 0c0,-0.2761 0.2239,-0.5 0.5,-0.5 0.2761,0 0.5,0.2239 0.5,0.5 0,0.2761 -0.2239,0.5 -0.5,0.5l0 4c0.2761,0 0.5,0.2239 0.5,0.5 0,0.2761 -0.2239,0.5 -0.5,0.5 -0.2761,0 -0.5,-0.2239 -0.5,-0.5l-9 0c0,0.2761 -0.2239,0.5 -0.5,0.5z"/>
  <path fill="none" stroke="#1F1A17" stroke-width="0.0762" d="M109 15.5c-0.2761,0 -0.5,-0.2239 -0.5,-0.5 0,-0.2761 0.2239,-0.5 0.5,-0.5l0 -4c-0.2761,0 -0.5,-0.2239 -0.5,-0.5 0,-0.2761 0.2239,-0.5 0.5,-0.5 0.2761,0 0.5,0.2239 0.5,0.5l9 0c0,-0.2761 0.2239,-0.5 0.5,-0.5 0.2761,0 0.5,0.2239 0.5,0.5 0,0.2761 -0.2239,0.5 -0.5,0.5l0 4c0.2761,0 0.5,0.2239 0.5,0.5 0,0.2761 -0.2239,0.5 -0.5,0.5 -0.2761,0 -0.5,-0.2239 -0.5,-0.5l-9 0c0,0.2761 -0.2239,0.5 -0.5,0.5z"/>
  <circle fill="none" stroke="#1F1A17" stroke-width="0.0762" transform="matrix(-7.94536E-014 -1 1 -7.94536E-014 133.5 42)" r="1.5"/>
  <path fill="none" stroke="#1F1A17" stroke-width="0.0762" d="M136.5 57c0,0.2761 -0.2239,0.5 -0.5,0.5 -0.2761,0 -0.5,-0.2239 -0.5,-0.5l-4 0c0,0.2761 -0.2239,0.5 -0.5,0.5 -0.2761,0 -0.5,-0.2239 -0.5,-0.5 0,-0.2761 0.2239,-0.5 0.5,-0.5l0 -9c-0.2761,0 -0.5,-0.2239 -0.5,-0.5 0,-0.2761 0.2239,-0.5 0.5,-0.5 0.2761,0 0.5,0.2239 0.5,0.5l4 0c0,-0.2761 0.2239,-0.5 0.5,-0.5 0.2761,0 0.5,0.2239 0.5,0.5 0,0.2761 -0.2239,0.5 -0.5,0.5l0 9c0.2761,0 0.5,0.2239 0.5,0.5z"/>
  <path fill="none" stroke="#1F1A17" stroke-width="0.0762" d="M136.5 37c0,0.2761 -0.2239,0.5 -0.5,0.5 -0.2761,0 -0.5,-0.2239 -0.5,-0.5l-4 0c0,0.2761 -0.2239,0.5 -0.5,0.5 -0.2761,0 -0.5,-0.2239 -0.5,-0.5 0,-0.2761 0.2239,-0.5 0.5,-0.5l0 -9c-0.2761,0 -0.5,-0.2239 -0.5,-0.5 0,-0.2761 0.2239,-0.5 0.5,-0.5 0.2761,0 0.5,0.2239 0.5,0.5l4 0c0,-0.2761 0.2239,-0.5 0.5,-0.5 0.2761,0 0.5,0.2239 0.5,0.5 0,0.2761 -0.2239,0.5 -0.5,0.5l0 9c0.2761,0 0.5,0.2239 0.5,0.5z"/>
  <circle fill="none" stroke="#1F1A17" stroke-width="0.0762" transform="matrix(-7.94536E-014 -1 1 -7.94536E-014 74.5 149)" r="1.5"/>
  <path fill="none" stroke="#1F1A17" stroke-width="0.0762" d="M77.5 164c0,0.2761 -0.2239,0.5 -0.5,0.5 -0.2761,0 -0.5,-0.2239 -0.5,-0.5l-4 0c0,0.2761 -0.2239,0.5 -0.5,0.5 -0.2761,0 -0.5,-0.2239 -0.5,-0.5 0,-0.2761 0.2239,-0.5 0.5,-0.5l0 -9c-0.2761,0 -0.5,-0.2239 -0.5,-0.5 0,-0.2761 0.2239,-0.5 0.5,-0.5 0.2761,0 0.5,0.2239 0.5,0.5l4 0c0,-0.2761 0.2239,-0.5 0.5,-0.5 0.2761,0 0.5,0.2239 0.5,0.5 0,0.2761 -0.2239,0.5 -0.5,0.5l0 9c0.2761,0 0.5,0.2239 0.5,0.5z"/>
  <path fill="none" stroke="#1F1A17" stroke-width="0.0762" d="M77.5 144c0,0.2761 -0.2239,0.5 -0.5,0.5 -0.2761,0 -0.5,-0.2239 -0.5,-0.5l-4 0c0,0.2761 -0.2239,0.5 -0.5,0.5 -0.2761,0 -0.5,-0.2239 -0.5,-0.5 0,-0.2761 0.2239,-0.5 0.5,-0.5l0 -9c-0.2761,0 -0.5,-0.2239 -0.5,-0.5 0,-0.2761 0.2239,-0.5 0.5,-0.5 0.2761,0 0.5,0.2239 0.5,0.5l4 0c0,-0.2761 0.2239,-0.5 0.5,-0.5 0.2761,0 0.5,0.2239 0.5,0.5 0,0.2761 -0.2239,0.5 -0.5,0.5l0 9c0.2761,0 0.5,0.2239 0.5,0.5z"/>
  <polygon fill="none" stroke="#1F1A17" stroke-width="0.0762" points="139,60 139,131 139,167 139,197 139,283 139,291 86,291 80,291 69,291 69,274 69,238 69,197 69,182 69,167 69,131 69,60 69,24 69,7 80,7 86,7 122,7 128,7 139,7 139,24 "/>
  <circle fill="none" stroke="#1F1A17" stroke-width="0.0762" transform="matrix(-7.94536E-014 -1 1 -7.94536E-014 133.5 149)" r="1.5"/>
  <path fill="none" stroke="#1F1A17" stroke-width="0.0762" d="M136.5 164c0,0.2761 -0.2239,0.5 -0.5,0.5 -0.2761,0 -0.5,-0.2239 -0.5,-0.5l-4 0c0,0.2761 -0.2239,0.5 -0.5,0.5 -0.2761,0 -0.5,-0.2239 -0.5,-0.5 0,-0.2761 0.2239,-0.5 0.5,-0.5l0 -9c-0.2761,0 -0.5,-0.2239 -0.5,-0.5 0,-0.2761 0.2239,-0.5 0.5,-0.5 0.2761,0 0.5,0.2239 0.5,0.5l4 0c0,-0.2761 0.2239,-0.5 0.5,-0.5 0.2761,0 0.5,0.2239 0.5,0.5 0,0.2761 -0.2239,0.5 -0.5,0.5l0 9c0.2761,0 0.5,0.2239 0.5,0.5z"/>
  <path fill="none" stroke="#1F1A17" stroke-width="0.0762" d="M136.5 144c0,0.2761 -0.2239,0.5 -0.5,0.5 -0.2761,0 -0.5,-0.2239 -0.5,-0.5l-4 0c0,0.2761 -0.2239,0.5 -0.5,0.5 -0.2761,0 -0.5,-0.2239 -0.5,-0.5 0,-0.2761 0.2239,-0.5 0.5,-0.5l0 -9c-0.2761,0 -0.5,-0.2239 -0.5,-0.5 0,-0.2761 0.2239,-0.5 0.5,-0.5 0.2761,0 0.5,0.2239 0.5,0.5l4 0c0,-0.2761 0.2239,-0.5 0.5,-0.5 0.2761,0 0.5,0.2239 0.5,0.5 0,0.2761 -0.2239,0.5 -0.5,0.5l0 9c0.2761,0 0.5,0.2239 0.5,0.5z"/>
  <circle fill="none" stroke="#1F1A17" stroke-width="0.0762" transform="matrix(2.64845E-014 1 -1 2.64845E-014 74.5 256)" r="1.5"/>
  <path fill="none" stroke="#1F1A17" stroke-width="0.0762" d="M71.5 241c0,-0.2761 0.2239,-0.5 0.5,-0.5 0.2761,0 0.5,0.2239 0.5,0.5l4 0c0,-0.2761 0.2239,-0.5 0.5,-0.5 0.2761,0 0.5,0.2239 0.5,0.5 0,0.2761 -0.2239,0.5 -0.5,0.5l0 9c0.2761,0 0.5,0.2239 0.5,0.5 0,0.2761 -0.2239,0.5 -0.5,0.5 -0.2761,0 -0.5,-0.2239 -0.5,-0.5l-4 0c0,0.2761 -0.2239,0.5 -0.5,0.5 -0.2761,0 -0.5,-0.2239 -0.5,-0.5 0,-0.2761 0.2239,-0.5 0.5,-0.5l0 -9c-0.2761,0 -0.5,-0.2239 -0.5,-0.5z"/>
  <path fill="none" stroke="#1F1A17" stroke-width="0.0762" d="M71.5 261c0,-0.2761 0.2239,-0.5 0.5,-0.5 0.2761,0 0.5,0.2239 0.5,0.5l4 0c0,-0.2761 0.2239,-0.5 0.5,-0.5 0.2761,0 0.5,0.2239 0.5,0.5 0,0.2761 -0.2239,0.5 -0.5,0.5l0 9c0.2761,0 0.5,0.2239 0.5,0.5 0,0.2761 -0.2239,0.5 -0.5,0.5 -0.2761,0 -0.5,-0.2239 -0.5,-0.5l-4 0c0,0.2761 -0.2239,0.5 -0.5,0.5 -0.2761,0 -0.5,-0.2239 -0.5,-0.5 0,-0.2761 0.2239,-0.5 0.5,-0.5l0 -9c-0.2761,0 -0.5,-0.2239 -0.5,-0.5z"/>
  <path fill="#1F1A17" fill-rule="nonzero" d="M73.073 10.8892l-3.0303 -1.1641 0 -0.4318 3.0303 -1.2404 0 0.4572 -0.9179 0.3535 0 1.2672 0.9179 0.3323 0 0.4261zm-1.2446 -0.8741l0 -1.028 -0.8389 0.3168c-0.2547,0.0959 -0.4642,0.1679 -0.6286,0.2145 0.1947,0.0388 0.3873,0.0931 0.5792,0.1637l0.8883 0.333z"/>
  <circle fill="none" stroke="#1F1A17" stroke-width="0.0762" transform="matrix(2.64845E-014 1 -1 2.64845E-014 133.5 256)" r="1.5"/>
  <path fill="none" stroke="#1F1A17" stroke-width="0.0762" d="M130.5 241c0,-0.2761 0.2239,-0.5 0.5,-0.5 0.2761,0 0.5,0.2239 0.5,0.5l4 0c0,-0.2761 0.2239,-0.5 0.5,-0.5 0.2761,0 0.5,0.2239 0.5,0.5 0,0.2761 -0.2239,0.5 -0.5,0.5l0 9c0.2761,0 0.5,0.2239 0.5,0.5 0,0.2761 -0.2239,0.5 -0.5,0.5 -0.2761,0 -0.5,-0.2239 -0.5,-0.5l-4 0c0,0.2761 -0.2239,0.5 -0.5,0.5 -0.2761,0 -0.5,-0.2239 -0.5,-0.5 0,-0.2761 0.2239,-0.5 0.5,-0.5l0 -9c-0.2761,0 -0.5,-0.2239 -0.5,-0.5z"/>
  <path fill="none" stroke="#1F1A17" stroke-width="0.0762" d="M130.5 261c0,-0.2761 0.2239,-0.5 0.5,-0.5 0.2761,0 0.5,0.2239 0.5,0.5l4 0c0,-0.2761 0.2239,-0.5 0.5,-0.5 0.2761,0 0.5,0.2239 0.5,0.5 0,0.2761 -0.2239,0.5 -0.5,0.5l0 9c0.2761,0 0.5,0.2239 0.5,0.5 0,0.2761 -0.2239,0.5 -0.5,0.5 -0.2761,0 -0.5,-0.2239 -0.5,-0.5l-4 0c0,0.2761 -0.2239,0.5 -0.5,0.5 -0.2761,0 -0.5,-0.2239 -0.5,-0.5 0,-0.2761 0.2239,-0.5 0.5,-0.5l0 -9c-0.2761,0 -0.5,-0.2239 -0.5,-0.5z"/>
  <ellipse fill="none" stroke="#1F1A17" stroke-width="0.0762" cx="110.75" cy="182.001" rx="2.9999" ry="3"/>
  <circle fill="none" stroke="#1F1A17" stroke-width="0.0762" cx="104" cy="285.5" r="1.5"/>
  <path fill="none" stroke="#1F1A17" stroke-width="0.0762" d="M89 288.5c-0.2761,0 -0.5,-0.2239 -0.5,-0.5 0,-0.2761 0.2239,-0.5 0.5,-0.5l0 -4c-0.2761,0 -0.5,-0.2239 -0.5,-0.5 0,-0.2761 0.2239,-0.5 0.5,-0.5 0.2761,0 0.5,0.2239 0.5,0.5l9 0c0,-0.2761 0.2239,-0.5 0.5,-0.5 0.2761,0 0.5,0.2239 0.5,0.5 0,0.2761 -0.2239,0.5 -0.5,0.5l0 4c0.2761,0 0.5,0.2239 0.5,0.5 0,0.2761 -0.2239,0.5 -0.5,0.5 -0.2761,0 -0.5,-0.2239 -0.5,-0.5l-9 0c0,0.2761 -0.2239,0.5 -0.5,0.5z"/>
  <path fill="none" stroke="#1F1A17" stroke-width="0.0762" d="M109 288.5c-0.2761,0 -0.5,-0.2239 -0.5,-0.5 0,-0.2761 0.2239,-0.5 0.5,-0.5l0 -4c-0.2761,0 -0.5,-0.2239 -0.5,-0.5 0,-0.2761 0.2239,-0.5 0.5,-0.5 0.2761,0 0.5,0.2239 0.5,0.5l9 0c0,-0.2761 0.2239,-0.5 0.5,-0.5 0.2761,0 0.5,0.2239 0.5,0.5 0,0.2761 -0.2239,0.5 -0.5,0.5l0 4c0.2761,0 0.5,0.2239 0.5,0.5 0,0.2761 -0.2239,0.5 -0.5,0.5 -0.2761,0 -0.5,-0.2239 -0.5,-0.5l-9 0c0,0.2761 -0.2239,0.5 -0.5,0.5z"/>
 </g>
</svg>
