<?xml version="1.0" encoding="UTF-8"?>
<!DOCTYPE svg PUBLIC "-//W3C//DTD SVG 1.1//EN" "http://www.w3.org/Graphics/SVG/1.1/DTD/svg11.dtd">
<!-- Creator: CorelDRAW -->
<svg xmlns="http://www.w3.org/2000/svg" xml:space="preserve" width="60cm" height="30cm" shape-rendering="geometricPrecision" text-rendering="geometricPrecision" image-rendering="optimizeQuality" fill-rule="evenodd" clip-rule="evenodd"
viewBox="0 0 600 300"
 xmlns:xlink="http://www.w3.org/1999/xlink">
 <g id="Layer_x0020_1">
  <metadata id="CorelCorpID_0Corel-Layer"/>
  <g id="_78311368">
   <rect id="_77364816" fill="none" stroke="#1F1A17" stroke-width="0.0762" x="1" y="1" width="220" height="284"/>
   <circle id="_77202400" fill="none" stroke="#1F1A17" stroke-width="0.0762" cx="146" cy="110" r="69"/>
   <circle id="_78416688" fill="none" stroke="#1F1A17" stroke-width="0.0762" cx="146" cy="110" r="2.5"/>
   <circle id="_78416760" fill="none" stroke="#1F1A17" stroke-width="0.0762" cx="132" cy="96" r="1"/>
   <circle id="_78416784" fill="none" stroke="#1F1A17" stroke-width="0.0762" cx="160" cy="96" r="1"/>
   <circle id="_78416832" fill="none" stroke="#1F1A17" stroke-width="0.0762" cx="132" cy="124" r="1"/>
   <circle id="_78416904" fill="none" stroke="#1F1A17" stroke-width="0.0762" cx="160" cy="124" r="1"/>
   <circle id="_78416928" fill="none" stroke="#1F1A17" stroke-width="0.0762" cx="146" cy="110" r="70"/>
  </g>
  <g id="_78039640">
   <path id="_77960360" fill="none" stroke="#1F1A17" stroke-width="0.0762" d="M445.241 6l0 284 -6.2411 0 -1 0 -1.5 0c0,-0.2761 -0.2239,-0.5 -0.5,-0.5 -0.2761,0 -0.5,0.2239 -0.5,0.5 0,0.2761 0.2239,0.5 0.5,0.5l0 4.5 -10 0 0 -4.5c0.2761,0 0.5,-0.2239 0.5,-0.5 0,-0.2761 -0.2239,-0.5 -0.5,-0.5 -0.2761,0 -0.5,0.2239 -0.5,0.5l-3 0 0 -3.9447 1.25 0 0 -2.5 -1.25 0 0 -4.5553 -3 0 0 4.5553 -1.25 0 0 2.5 1.25 0 0 3.9447 -3 0c0,-0.2761 -0.2239,-0.5 -0.5,-0.5 -0.2761,0 -0.5,0.2239 -0.5,0.5 0,0.2761 0.2239,0.5 0.5,0.5l0 4.5 -10 0 0 -4.5c0.2761,0 0.5,-0.2239 0.5,-0.5 0,-0.2761 -0.2239,-0.5 -0.5,-0.5 -0.2761,0 -0.5,0.2239 -0.5,0.5l-2.5 0 -49 0 -1 0 -1.5 0c0,-0.2761 -0.2239,-0.5 -0.5,-0.5 -0.2761,0 -0.5,0.2239 -0.5,0.5 0,0.2761 0.2239,0.5 0.5,0.5l0 4.5 -10 0 0 -4.5c0.2761,0 0.5,-0.2239 0.5,-0.5 0,-0.2761 -0.2239,-0.5 -0.5,-0.5 -0.2761,0 -0.5,0.2239 -0.5,0.5l-3 0 0 -3.9447 1.25 0 0 -2.5 -1.25 0 0 -4.5553 -3 0 0 4.5553 -1.25 0 0 2.5 1.25 0 0 3.9447 -3 0c0,-0.2761 -0.2239,-0.5 -0.5,-0.5 -0.2761,0 -0.5,0.2239 -0.5,0.5 0,0.2761 0.2239,0.5 0.5,0.5l0 4.5 -10 0 0 -4.5c0.2761,0 0.5,-0.2239 0.5,-0.5 0,-0.2761 -0.2239,-0.5 -0.5,-0.5 -0.2761,0 -0.5,0.2239 -0.5,0.5l-2.5 0 -49 0 -1 0 -1.5 0c0,-0.2761 -0.2239,-0.5 -0.5,-0.5 -0.2761,0 -0.5,0.2239 -0.5,0.5 0,0.2761 0.2239,0.5 0.5,0.5l0 4.5 -10 0 0 -4.5c0.2761,0 0.5,-0.2239 0.5,-0.5 0,-0.2761 -0.2239,-0.5 -0.5,-0.5 -0.2761,0 -0.5,0.2239 -0.5,0.5l-3 0 0 -3.9447 1.25 0 0 -2.5 -1.25 0 0 -4.5553 -3 0 0 4.5553 -1.25 0 0 2.5 1.25 0 0 3.9447 -3 0c0,-0.2761 -0.2239,-0.5 -0.5,-0.5 -0.2761,0 -0.5,0.2239 -0.5,0.5 0,0.2761 0.2239,0.5 0.5,0.5l0 4.5 -10 0 0 -4.5c0.2761,0 0.5,-0.2239 0.5,-0.5 0,-0.2761 -0.2239,-0.5 -0.5,-0.5 -0.2761,0 -0.5,0.2239 -0.5,0.5l-2.5 0 -10 0 0 -284 10 0 2.5 0c0,0.2761 0.2239,0.5 0.5,0.5 0.2761,0 0.5,-0.2239 0.5,-0.5 0,-0.2761 -0.2239,-0.5 -0.5,-0.5l0 -4.5 10 0 0 4.5c-0.2761,0 -0.5,0.2239 -0.5,0.5 0,0.2761 0.2239,0.5 0.5,0.5 0.2761,0 0.5,-0.2239 0.5,-0.5l3 0 0 3.9447 -1.25 0 0 2.5 1.25 0 0 4.5553 3 0 0 -4.5553 1.25 0 0 -2.5 -1.25 0 0 -3.9447 3 0c0,0.2761 0.2239,0.5 0.5,0.5 0.2761,0 0.5,-0.2239 0.5,-0.5 0,-0.2761 -0.2239,-0.5 -0.5,-0.5l0 -4.5 10 0 0 4.5c-0.2761,0 -0.5,0.2239 -0.5,0.5 0,0.2761 0.2239,0.5 0.5,0.5 0.2761,0 0.5,-0.2239 0.5,-0.5l1.5 0 1 0 49 0 2.5 0c0,0.2761 0.2239,0.5 0.5,0.5 0.2761,0 0.5,-0.2239 0.5,-0.5 0,-0.2761 -0.2239,-0.5 -0.5,-0.5l0 -4.5 10 0 0 4.5c-0.2761,0 -0.5,0.2239 -0.5,0.5 0,0.2761 0.2239,0.5 0.5,0.5 0.2761,0 0.5,-0.2239 0.5,-0.5l3 0 0 3.9447 -1.25 0 0 2.5 1.25 0 0 4.5553 3 0 0 -4.5553 1.25 0 0 -2.5 -1.25 0 0 -3.9447 3 0c0,0.2761 0.2239,0.5 0.5,0.5 0.2761,0 0.5,-0.2239 0.5,-0.5 0,-0.2761 -0.2239,-0.5 -0.5,-0.5l0 -4.5 10 0 0 4.5c-0.2761,0 -0.5,0.2239 -0.5,0.5 0,0.2761 0.2239,0.5 0.5,0.5 0.2761,0 0.5,-0.2239 0.5,-0.5l1.5 0 1 0 49 0 2.5 0c0,0.2761 0.2239,0.5 0.5,0.5 0.2761,0 0.5,-0.2239 0.5,-0.5 0,-0.2761 -0.2239,-0.5 -0.5,-0.5l0 -4.5 10 0 0 4.5c-0.2761,0 -0.5,0.2239 -0.5,0.5 0,0.2761 0.2239,0.5 0.5,0.5 0.2761,0 0.5,-0.2239 0.5,-0.5l3 0 0 3.9447 -1.25 0 0 2.5 1.25 0 0 4.5553 3 0 0 -4.5553 1.25 0 0 -2.5 -1.25 0 0 -3.9447 3 0c0,0.2761 0.2239,0.5 0.5,0.5 0.2761,0 0.5,-0.2239 0.5,-0.5 0,-0.2761 -0.2239,-0.5 -0.5,-0.5l0 -4.5 10 0 0 4.5c-0.2761,0 -0.5,0.2239 -0.5,0.5 0,0.2761 0.2239,0.5 0.5,0.5 0.2761,0 0.5,-0.2239 0.5,-0.5l1.5 0 1 0 6.2411 0z"/>
   <rect id="_77378208" fill="none" stroke="#1F1A17" stroke-width="0.0762" transform="matrix(2.64845E-014 -1 1 2.64845E-014 243 270)" width="244" height="182.241" rx="9.112" ry="9.112"/>
  </g>
 </g>
</svg>
